<svg xmlns="http://www.w3.org/2000/svg" width="220.267" height="14.752" viewBox="0 0 220.267 14.752">
  <g id="Group_327" data-name="Group 327" opacity="0.57">
    <path id="Path_33584" data-name="Path 33584" d="M943.128,5510.032c-3.529-.582-7.059-.964-10.588-1.244-1.752-.177-3.529-.253-5.281-.38l-5.281-.254c-3.529-.127-7.059-.1-10.588.026q-5.294.228-10.588.38l-21.151.635c-7.059.279-14.117.508-21.151.836v.407c7.059.331,14.117.559,21.151.839l21.151.634c3.529.1,7.059.229,10.588.406,3.529.127,7.059.153,10.588.026l5.281-.254c1.752-.126,3.529-.2,5.281-.381,3.529-.278,7.059-.661,10.588-1.244Z" transform="translate(-847.988 -5502.874)" fill="#007f1c"/>
    <path id="Path_33585" data-name="Path 33585" d="M827.815,5496.5l-.1-.1s-8.785,4.519-10.613,5.128c1.8.636,10.613,5.13,10.613,5.13l.1-.077-1.93-5.052Z" transform="translate(-817.1 -5494.165)" fill="#007f1c"/>
    <path id="Path_33586" data-name="Path 33586" d="M1196.238,5497.893a6.159,6.159,0,0,0-1.828-1.5,6.913,6.913,0,0,0-3.91-.788c1.143.862,2.234,1.625,3.2,2.513a6.912,6.912,0,0,1,1.219,1.4,2.877,2.877,0,0,1,.482,1.4,2.449,2.449,0,0,1-.457,1.371,6.993,6.993,0,0,1-1.219,1.42,37.563,37.563,0,0,1-3.2,2.514,6.738,6.738,0,0,0,3.91-.812,5.575,5.575,0,0,0,1.8-1.523,5.267,5.267,0,0,0,.736-1.3,4.03,4.03,0,0,0,.228-.838c.026-.128.051-.3.076-.482a2.2,2.2,0,0,0,.025-.432,4.508,4.508,0,0,0-.33-1.7A5.365,5.365,0,0,0,1196.238,5497.893Z" transform="translate(-1095.69 -5493.551)" fill="#007f1c"/>
    <path id="Path_33587" data-name="Path 33587" d="M1221.2,5487.6a18.213,18.213,0,0,1,.711,3.734,35.025,35.025,0,0,1,.178,3.63,34.376,34.376,0,0,1-.178,3.631,18.756,18.756,0,0,1-.685,3.732,5.841,5.841,0,0,0,2.133-3.2,14.143,14.143,0,0,0,0-8.379A6.113,6.113,0,0,0,1221.2,5487.6Z" transform="translate(-1118.595 -5487.6)" fill="#007f1c"/>
    <path id="Path_33588" data-name="Path 33588" d="M1394.528,5510.032c-7.059-.328-14.117-.557-21.151-.836l-21.151-.635q-5.294-.152-10.588-.38c-3.53-.127-7.059-.153-10.588-.026l-5.281.254c-1.752.126-3.529.2-5.281.38-3.529.28-7.059.662-10.588,1.244v.407c3.529.585,7.059.965,10.588,1.244,1.752.179,3.529.255,5.281.381l5.281.254c3.529.127,7.059.1,10.588-.025,3.529-.153,7.059-.28,10.588-.407l21.151-.635c7.059-.278,14.117-.507,21.151-.838Z" transform="translate(-1184.773 -5502.874)" fill="#007f1c"/>
    <path id="Path_33589" data-name="Path 33589" d="M1642.5,5496.4l-.1.1,1.929,5.026-1.929,5.053.1.077s8.785-4.52,10.613-5.13C1651.287,5500.919,1642.5,5496.4,1642.5,5496.4Z" transform="translate(-1432.848 -5494.165)" fill="#007f1c"/>
    <path id="Path_33590" data-name="Path 33590" d="M1286.661,5502.286a2.737,2.737,0,0,1-.457-1.371,2.636,2.636,0,0,1,.483-1.4,7.791,7.791,0,0,1,1.219-1.4c.965-.888,2.057-1.624,3.2-2.513a6.913,6.913,0,0,0-3.91.788,6.162,6.162,0,0,0-1.828,1.5,5.084,5.084,0,0,0-.736,1.269,4.615,4.615,0,0,0-.33,1.7,2.333,2.333,0,0,0,.026.433c.025.176.025.355.051.482a4.572,4.572,0,0,0,.228.837,5.271,5.271,0,0,0,.736,1.3,5.843,5.843,0,0,0,1.8,1.524,6.754,6.754,0,0,0,3.91.813c-1.143-.865-2.234-1.626-3.2-2.516A8.85,8.85,0,0,1,1286.661,5502.286Z" transform="translate(-1165.673 -5493.551)" fill="#007f1c"/>
    <path id="Path_33591" data-name="Path 33591" d="M1272.368,5487.6a5.771,5.771,0,0,0-2.133,3.174,14.146,14.146,0,0,0,0,8.38,5.977,5.977,0,0,0,2.133,3.2,18.756,18.756,0,0,1-.685-3.732c-.127-1.218-.152-2.411-.178-3.631a34.462,34.462,0,0,1,.178-3.63A16.8,16.8,0,0,1,1272.368,5487.6Z" transform="translate(-1154.706 -5487.6)" fill="#007f1c"/>
    <path id="Path_33592" data-name="Path 33592" d="M1242.945,5503.6c-.076,0-.127.025-.2.025s-.127-.025-.2-.025c-1.4,0-2.539,1.472-2.539,3.326,0,1.828,1.143,3.327,2.539,3.327.076,0,.127-.026.2-.026s.127.026.2.026c1.4,0,2.539-1.5,2.539-3.327C1245.51,5505.073,1244.367,5503.6,1242.945,5503.6Z" transform="translate(-1132.621 -5499.539)" fill="#007f1c"/>
  </g>
</svg>
