<svg xmlns="http://www.w3.org/2000/svg" width="155.764" height="139.757" viewBox="0 0 155.764 139.757">
  <g id="Group_51324" data-name="Group 51324" transform="matrix(-0.875, -0.485, 0.485, -0.875, 116.324, 159.63)">
    <g id="Group_172" data-name="Group 172" transform="translate(14.096 3.091)">
      <path id="Path_1" data-name="Path 1" d="M0,2.64s2.317.951,1.643,2.109c0,0,1.055,3.475,3.043,2.8,0,0-1.245,2.386,5.343,8.8l1.279-.26S4.979,10.558,5.74,8.12c0,0,1.694-2.386.363-3.6,0,0,2.922-2.836,1.279-4.392C7.4.132.726-.87,0,2.64Z" transform="translate(3.996 31.119)" fill="#b4bf60"/>
      <path id="Path_2" data-name="Path 2" d="M.434,6.172S-.915,1.608,1.143,0c0,0,3.959,3.406,3.337,4.2,0,0,2.2-.726,5.412,1.037l1.591.864s-7.141-1.47-8.368-.968A3.08,3.08,0,0,1,.434,6.172Z" transform="translate(0 45.102)" fill="#b4bf60"/>
      <path id="Path_3" data-name="Path 3" d="M9.672,15.377S15.1,7.563,8.928,2.634A1.9,1.9,0,0,1,10.588.163,2.822,2.822,0,0,0,7.165,1.424,8.367,8.367,0,0,0,.456,7.684s-1.867,6.708,1.954,9.423C2.41,17.124,5.09,25.371,9.672,15.377Z" transform="translate(14.104 30.139)" fill="#b4bf60"/>
      <path id="Path_4" data-name="Path 4" d="M10.409,10.59s3.129-3.06,5.325-2.005c0,0,.709,1.607-1.21,4.08,0,0,.622,4.894.242,7.055,0,0,2.057-2.732,1.885-4.6a23.587,23.587,0,0,1,1.47-6.242s2.369-4.5,3.164-4.617c0,0-.052-4.858,2.784-4.2,0,0,3.665,1.659,2.317,3.717,0,0-.726,1.021-4.011,1.228,0,0-5.135,5.1-4.288,7.089l-.259,1.072s2.559-4.841,7.3-4.651L26.263,8.2s-2.4,4.478-6.449,4.651c0,0-2.127-.259-2.472,3.078,0,0-.761,4.184-3.164,6.4,0,0,.225,2.938,2.853-1.539a3.98,3.98,0,0,0,1.954-1.9s2.663-1.954,3.043-3.855c0,0,.709-1.314,1.349,1,0,0,4.253,1.522,2.421,3.856a1.811,1.811,0,0,0-2.7.225s-2.611,1.124-3.648.934c0,0-8.144,6.172-9.008,13.451,0,0-1.176,11.6-.19,15.008,0,0-1.8,2.265-1.781-1.228,0,0-1.539-6.276.674-16.062,0,0-1.02-4.115-2.68-3.181A10.678,10.678,0,0,1,.882,20.463,1.093,1.093,0,0,0,0,19.425a6.712,6.712,0,0,1,7.106,1.746s3.838,3.942,2.991,8.334c0,0,2.9-2.542,3.181-5.291,0,0,1.055-1.729-.225-2.023a5.169,5.169,0,0,1-4.807-1.434l-1.625-.675s2.991-2.144,5.636-.329c0,0,1.5.623,1.677,1.159,0,0,.951-6.4-.38-6.985C13.59,13.858,10.443,11.749,10.409,10.59Z" transform="translate(21.32 0)" fill="#b4bf60"/>
      <path id="Path_5" data-name="Path 5" d="M19.538,12.224s-5.256,4.305-9.043,1.487c0,0-3.268,1.453-4.409-1.072,0,0-5.031-2.316-6.086-12.639C0,0,2.3,2.023,2.628,1.228c0,0,1.072-1.435,3.129-.312a1.9,1.9,0,0,1,2.628.208s1.487-1.245,3.8.553c0,0,5.273-1.729,6.726,6.1,0,0,1.418,2.162,2.576.5C21.457,8.247,22.39,11.256,19.538,12.224Z" transform="translate(32.472 36.819)" fill="#b4bf60"/>
      <path id="Path_6" data-name="Path 6" d="M.376,6.933S3.385.743,16.006,1.175c0,0,4.374.312,5.291-1.175l1.487,1.5s-5.55,2.507-8.264,1.142c0,0-7.659-.416-13.071,5.014C1.431,7.659-.886,9.336.376,6.933Z" transform="translate(33.272 51.396)" fill="#b4bf60"/>
      <path id="Path_7" data-name="Path 7" d="M29.635,0,24.569,3.233S18.9,7.746,13.486,7.452c0,0-6.795,2.369-9.734,5.533,0,0-2.749,2.731-3.752,2.784,0,0,1.66,7.746,7.711,7.245,0,0,5.049,2.438,8.42-1.021a6.412,6.412,0,0,0,4.426-3.562s1.729.45,2.3-1.02c0,0-2.057-.727-2.524-1.729L15.44,12.622s1.539-1.21,1.089-2.489a5.421,5.421,0,0,1-4.409-.069l-1.349-.276s4.945-2.161,6.536-1.937c0,0,8.386-1.555,10.875-5.74C28.165,2.127,32.021,1.591,29.635,0Z" transform="translate(26.542 53.642)" fill="#b4bf60"/>
      <path id="Path_8" data-name="Path 8" d="M5.533,0S11.2,4.962,11.878,6.673a2.133,2.133,0,0,0,2.645-1.729s3.648-5.878,8.9-2.714c0,0,3.665,3.112,4.53,2.161,0,0-.986,1.469-1.833,1.193,0,0-4.807,6.414-9.907,4.5,0,0-2.2-2.472-3.095-1.383,0,0,2.317,3.942,1.919,4.962,0,0,2.594,1.971,3.372.468,0,0,4.564-1.5,6.328.345,0,0,3.786,2.161,3.216,3.718,0,0,1.452,1.625,1.02,3.181,0,0,.346,2.8.8,3.181,0,0-1.971-2.576-3.475-1.867,0,0-6.933.9-9.492-5.481,0,0-1.383-3.821-1.712-1.176,0,0,1.677,5.516.726,6.6,0,0,5.446,4.91.242,12.916l-.45,2.714L14.938,36.4s-5.809-4.6-1.47-13.746c0,0,1.85.968,1.349-2.489l-.484-5.377s.484-3.6-1.176-.709l-.882,1.85s1.262,8.23-6.881,10.495c0,0-1.279.381-1.487,1.436,0,0-2.507.743.1-1.868,0,0-2.109-7.693,7.607-10.512,0,0,2.4-2.316,2.057-3.578,0,0-1.556-5.136-4.184-6.38l-.156,1.14-.1.727s2.369,6.051-5,9.786l-.052-.881S1.262,17.808,0,17.549c0,0,2.645-1.573,1.418-4.046,0,0-.086-5.429,6.518-7,0,0,1.66-.484.5-2.2l-3.3-1.833Z" transform="translate(23.793 78.246)" fill="#b4bf60"/>
      <path id="Path_9" data-name="Path 9" d="M13.694,4.2S8.057,4.115,7.072,8.8c0,0-2.213,5-2.957,5.6l1.3-.484a5.874,5.874,0,0,1-1.66,2.472S1.47,21.3,0,21.042c0,0,3.268,1.574,6.6-2.3,0,0,.484,1.5-1.556,4.271A12.116,12.116,0,0,0,12.985,17.6s3.078,2.438,6.536-6.968c0,0-1.21-9.268-1.418-9.405C17.895,1.072,16.3,0,16.3,0Z" transform="translate(51.768 68.857)" fill="#b4bf60"/>
      <path id="Path_10" data-name="Path 10" d="M4.845,3.649S11.329,9.527,12.9,15.406c0,0,1.539,2.611-1.521,2.352,0,0-1.331-.587-1.314,1.919,0,0-1.02,5.048-4.72,7.486,0,0-9.458-8.489-3.216-19.521,0,0,3.026-1.193,1.02-7.642C3.151-.017,4.534.882,4.845,3.649Z" transform="translate(70.523 76.775)" fill="#b4bf60"/>
      <path id="Path_11" data-name="Path 11" d="M.4,4.825S4.617,6.467,7,2.785c0,0,5.239-4.409,8.057-.692,0,0,6-.761,6.466-2.093a2.618,2.618,0,0,1-1.089,3.631s.986.588-1.764,4.219L17.394,8.922s-1.988,1.192-.38,2.213c0,0-3.8,3.544-7.089,2.645,0,0-5.412-4.391-7.037-6.138C2.888,7.625-1.279,5.4.4,4.825Z" transform="translate(76.993 73.422)" fill="#b4bf60"/>
      <path id="Path_12" data-name="Path 12" d="M10.563,22.949s.951-14.8-9.423-14.592c0,0-1.746-.121-.916-.847,0,0,7.936-.537,10.6,2.058,0,0,3.959,4.962.622,12.1l4.184-6.951S17.081,6.731,14.851,3.2L13.917,1.44a11.211,11.211,0,0,1,3.2,8.939s3.8-8.437,6.449-9.233c0,0,6.847-2.126,8.3-.587,0,0,3.337.121,3.164,1.3,0,0-7.832.363-9.06,2.438,0,0-8.576,6.224-8.506,8.558l-4.807,8.213a6.662,6.662,0,0,0,3.579-3.613s4.184-3.751,5.654-2.369c0,0,4.219-2.714,4.115-6.38L27.265,7.25s1.539,4.53.173,6.933c0,0,3.3,2.213-2.68,11.5,0,0-6.345,5.187-11.792,3.457A4.354,4.354,0,0,1,10.563,22.949Z" transform="translate(65.047 0.229)" fill="#b4bf60"/>
      <path id="Path_13" data-name="Path 13" d="M.81,15.405s3.216,2.075,3.147-.294c0,0-.346-3.129,4.357-7.607,0,0,2.369-1.937,2.161-4.357a4.05,4.05,0,0,0-.1-.605c-.709-2.68,3.423,6.207-2.49,11.394,0,0-5.619,2.957-1.02,1.487,0,0,5.9-.709,6.9-4.928l.657-.968s-1.9-1.747-.986-5.723c0,0-.207-3.009-1.4-3.717L15.334,0l4.392,7.227-.259.709-.605.553s3.458,1.885,2.109,3.562c0,0-1.5-1.574-2.559.035,0,0-2.438.985-2.974-1.106a58.143,58.143,0,0,1-4.184,4.081s5.688.328,9.7,3.233c0,0,5.965-.329,7.677-3.372,0,0,5.827-5.6,13.728-4.063a5.153,5.153,0,0,1,4.564-.052s-3.233.173-3.441,2.11a20.448,20.448,0,0,1-17.065,6.241l-4.443-.137,3.562,2.438-1.452,1.106S19.328,17.2,15.7,17.5c0,0-4.755-1.47-5.982-1.106,0,0,8.852,5.55,5.239,14.8,0,0-.9,1.815-.571,2.144,0,0-1.037,1.038-1.5-1.038a11.463,11.463,0,0,0-2.023-2.8s-3.3-2.56-.328-10.409c0,0-1.366-2.888-3.095-2.127l-6.778.276C.689,17.238-.936,17.134.81,15.405Z" transform="translate(90.067 37.235)" fill="#b4bf60"/>
    </g>
    <g id="Group_174" data-name="Group 174" transform="translate(12.011 5.538)">
      <path id="Path_14" data-name="Path 14" d="M5,3.269S1.85-.829,0,.416C.017.416,1.781-1.607,5,3.269Z" transform="translate(40.279 34.855)" fill="#8f812e"/>
      <path id="Path_15" data-name="Path 15" d="M0,1.73S2.8-.189,4.2.14C4.2.122,1.124-.673,0,1.73Z" transform="translate(42.942 80.224)" fill="#8f812e"/>
      <path id="Path_16" data-name="Path 16" d="M0,2.982S2.628-.32,4.565.025C4.565.025.968-.251,0,2.982Z" transform="translate(41.351 78.937)" fill="#8f812e"/>
      <path id="Path_17" data-name="Path 17" d="M0,5.757A16.221,16.221,0,0,1,3.406,1.884L6.587,0,2.7,2.939C2.7,2.956.761,5.757,0,5.757Z" transform="translate(55.823 79.62)" fill="#8f812e"/>
      <g id="Group_173" data-name="Group 173">
        <path id="Path_18" data-name="Path 18" d="M14.016,3.152S16.35,7.077,6.737,13.785c0,0-4.979-.329-6.691,3.838,0,0-.363-2.42.951-3.562a4.452,4.452,0,0,1,.138-5.083s-.968-1.573,2.2-5.792c0,0,2.68-4.651,7.521-2.715C10.852.455,14.656.783,14.016,3.152Z" transform="translate(0 75.949)" fill="#8f812e"/>
        <path id="Path_19" data-name="Path 19" d="M10.471,10.506S2.414,8.067.927,4.576C-.577,1.065.2,3.382.2,3.382S7.048-3.412,14.517,2.258C14.517,2.241,16.021,9.261,10.471,10.506Z" transform="translate(2.646 62.596)" fill="#8f812e"/>
        <path id="Path_20" data-name="Path 20" d="M.857,3.1a2.856,2.856,0,0,0,3.285-1.5L5.906.383S2.621-.775,1.376.937C1.376.954-1.338,3.374.857,3.1Z" transform="translate(6.658 49.152)" fill="#8f812e"/>
        <path id="Path_21" data-name="Path 21" d="M10.27,7.985S4.824,5.271,1.643,7.173L.571,7.19,3.216,6.083S.951,4.147,0,4.268a5.222,5.222,0,0,1,3.095.8S1.591,1.605.363,1.19c0,0,1.971.9,3.89,4.564,0,0,4.7.484,5.412,1.037,0,0-3.389-2.489-.38-6.76,0,0,.986-.293.83.9,0,0-.121,1.539.743,1.971,0,0,1.262,2.316.242,3.406C11.1,6.309,11.1,7.761,10.27,7.985Z" transform="translate(2.311 41.118)" fill="#8f812e"/>
        <path id="Path_22" data-name="Path 22" d="M5.685,17.014S-1.646,15.025.342,5.654c0,0,.622-.9,1.055.207,0,0,1.089.588.571-.83,0,0-.086-1.607,1.055-1.539a14.067,14.067,0,0,0,1.47,3.423s.622-.1.069-3.855c0,0,.017-1.124.484-.708A45.669,45.669,0,0,1,5.564,7.9,3.547,3.547,0,0,0,6.117,5.62S7.223.208,7.915,0L6.687,8.68A1.178,1.178,0,0,0,8.053,7.66s-.4,1.607-1.262,1.832c0,0-.432,3.026.415,1.747,0,0,3.873-4.288,3.631-5.291a12.958,12.958,0,0,1-3.821,6.362s-.709,2.3,1.435.069L9.8,10.409s-.847,2.818-2.68,3.908C7.085,14.316,7.258,17.515,5.685,17.014Z" transform="translate(16.32 29.738)" fill="#8f812e"/>
        <path id="Path_23" data-name="Path 23" d="M8.609,12.276S4.235,9.112,3.145,5.464A3.042,3.042,0,0,0,.967,3.493,2.379,2.379,0,0,1,.051.969s.242,1.954,1.072,2.3c0,0,.968.727.847-.121,0,0-.813-1.868-.588-2.456,0,0,.761,3.13,1.435,2.714A3.647,3.647,0,0,0,1.866,0,3.885,3.885,0,0,1,3.128,3.735s.934-.086.432-2.921a3.5,3.5,0,0,1,0,3.474A6.961,6.961,0,0,0,5.7,8.8s3.026,3.147,3.579,3.13C9.266,11.931,10.1,12.933,8.609,12.276Z" transform="translate(7.724 31.778)" fill="#8f812e"/>
        <path id="Path_24" data-name="Path 24" d="M6.778,12.708s.035-.173.086-.485c.207-1.555.519-6.432-3.268-9.751L0,0S4.046,2.991,3.856,3.734c0,0,1.988,1.522.086.934,0,0,1.522,1.038,1.331,2.317A3.464,3.464,0,0,1,2.421,5.031S3.873,8.161,5.308,8.143c0,0,1.729.536,1.089,4.323C6.415,12.466,6.708,13.191,6.778,12.708Z" transform="translate(25.791 17.031)" fill="#8f812e"/>
        <path id="Path_25" data-name="Path 25" d="M.657,8.431S1.418,1.81.536.236c0,0-.328-.554-.536.035,0,0,1.072,5.688.4,6.6C.38,6.858-.1,8.224.657,8.431Z" transform="translate(37.392 9.982)" fill="#8f812e"/>
        <path id="Path_26" data-name="Path 26" d="M.657,2.145A1.92,1.92,0,0,0,3.371,2.3S3.562.554,0,0C0,0,3.752,1.143,2.2,1.973,2.2,1.955-.1,1.608.657,2.145Z" transform="translate(33.623 16.684)" fill="#8f812e"/>
        <path id="Path_27" data-name="Path 27" d="M0,3.024S1.625.241,4.322.034C4.322.034,1.349-.537,0,3.024Z" transform="translate(41.421 8.507)" fill="#8f812e"/>
        <path id="Path_28" data-name="Path 28" d="M.19,5.118,3.977,0s.242,1.227.674.466l-4.2,5.2C.467,5.671-.363,5.861.19,5.118Z" transform="translate(41.126 2.074)" fill="#8f812e"/>
        <path id="Path_29" data-name="Path 29" d="M.127,23.393S-1.152,15.665,4.4,6.519C4.4,6.519,8.548.8,11.763,0a.866.866,0,0,1-.64.934,18.288,18.288,0,0,0-6.1,6s.9.657,2.576-.554c0,0,4.443-1.435,6.172-.519a5.015,5.015,0,0,1,2.853,5.066s1.418,1.884,1.539,1.4c0,0-.709,1.072-2.265-.692,0,0-3.164.934-4.322-1.383,0,0-1.971-1.021-2.2-2.646,0,0-.743-1.557-1.919-.433,0,0-2.369.969-2.887.45,0,0-4.841,8.645-3.838,13.762C.715,21.387,1.165,24.725.127,23.393Z" transform="translate(31.749 17.618)" fill="#8f812e"/>
        <path id="Path_30" data-name="Path 30" d="M.6,5.427a1.846,1.846,0,0,1,2.248-1.21S5.112,4.3,8.017.309c0,0-3.112-1.227-4.824,1.211,0,0-.571.518-2.784,3.094C.409,4.6-.628,5.79.6,5.427Z" transform="translate(54.687 4.861)" fill="#8f812e"/>
        <path id="Path_31" data-name="Path 31" d="M0,6.794S4.15,5.982,3.527.865L4.115,0l-1.3.38a3.926,3.926,0,0,0-2.524,3.8A4.228,4.228,0,0,1,0,6.794Z" transform="translate(53.938 0.691)" fill="#8f812e"/>
        <path id="Path_32" data-name="Path 32" d="M9.975,10.675s2.9-4.115-2.628-8.316c0,0-1.124-1.021-.882-1.989,0,0-2.265,1.643-1.245,3.579C5.221,3.949,1.9-.2.293.007c0,0,.778,3.25-.035,5.36,0,0-.9,5.411.657,7.192,0,0,2.265,3.787,4.582,3.855C5.515,16.45,11.324,20.063,9.975,10.675Z" transform="translate(59.386 9.52)" fill="#8f812e"/>
        <path id="Path_33" data-name="Path 33" d="M15.561,4.045a8.306,8.306,0,0,0-3.786-1.331S3.769,3.008,0,0C0,0,3.648,3.821,7.867,4.253c0,0,1.573.933-1.608,1.055,0,0,4.1.9,5.446-.086,0,0-1.936,1.47-3.389,1.037,0,0,2.8,1.644,5.014-.293A8.7,8.7,0,0,1,7.8,7.954a6.346,6.346,0,0,0,6.484-1.262C14.3,6.708,16.685,5.239,15.561,4.045Z" transform="translate(39.19 38.988)" fill="#8f812e"/>
        <path id="Path_34" data-name="Path 34" d="M11.463.366S8.42,3.357,6.121,4.221L0,5.57S6.639,3.961,7.348,2.976C7.365,2.976,11.221-1.243,11.463.366Z" transform="translate(44.429 53.077)" fill="#8f812e"/>
        <path id="Path_35" data-name="Path 35" d="M0,4.062S3.389-.295,8.368.016c0,0-6.138,1.851-6.242,3.89,0,0,9.06-3.6,10.581-3.042C12.708.864,2.3,3.7,1.677,5.22c0,0,4.616-.311,6.5-1.5l6.207-.934s-4.253.76-4.91,1.815c0,0-4.029.6-2.455,1.677,0,0,3.614,2.23,4.374,1.3,0,0-.968,1.123-4.08-.605,0,0-4.15-2.075-2.213-.311,0,0,4.011,4.063,6.5,2.921a4.1,4.1,0,0,1-4.564-.691,3.053,3.053,0,0,1-3.959.708L.951,7.364s-1.176,1.539.1-.622Z" transform="translate(30.407 63.455)" fill="#8f812e"/>
        <path id="Path_36" data-name="Path 36" d="M8.282,0A12.438,12.438,0,0,1,7.59,1.66c-.45.9-1.072,1.833-1.729,1.867L2.87,5.083S5.585,3.25,6.6,4.046c0,0-3.441,6.034-6.6,7.417,0,0,4.167-1.038,7.193-7.555,0,0,.743,2.852-3.251,7.261,0,0,4.115-1.4,4.426-8.973A3.43,3.43,0,0,1,8.282,0Z" transform="translate(26.69 81.02)" fill="#8f812e"/>
        <path id="Path_37" data-name="Path 37" d="M.264,1.282S2.857,2.25,3.03,3.167c0,0,2.715,3.025,8.489-1.9,0,0,.277-1.4-3.475.4L6.125,2.2S4.448,1.333,9.67,0c0,0-3.527-.138-5.1,1.919,0,0-1.8-1.02,1.262-1.85,0,0-3.631,1.245-4.461.432C1.37.5-.722.124.264,1.282Z" transform="translate(38.269 82.176)" fill="#8f812e"/>
        <path id="Path_38" data-name="Path 38" d="M.136.01s5.792,5.931,5.9,9.562c0,0,1.124,7.573.778,9.3a10.592,10.592,0,0,1-.4-3.51S5.98,9.036,5.047,8.155C5.029,8.137-.97-.335.136.01Z" transform="translate(34.213 79.125)" fill="#8f812e"/>
        <path id="Path_39" data-name="Path 39" d="M4.668,0,0,7.262s2.057-2.109,1.487-.086c0,0,2.144-4.236,1.591-1.452,0,0-1.124,3.13-3.06,3.579A8.964,8.964,0,0,0,4.858.865Z" transform="translate(32.482 91.93)" fill="#8f812e"/>
        <path id="Path_40" data-name="Path 40" d="M2.951,0S-.991,3.855.237,7.8c0,0-.173-5.637,2.559-5.879,0,0-1.279,6.172-.173,7.833,0,0-.778-5.792,1.141-4.391,0,0-1.21-4.41,1.21-.485C4.974,4.875,5.545,1.193,2.951,0Z" transform="translate(37.553 98.448)" fill="#8f812e"/>
        <path id="Path_41" data-name="Path 41" d="M.355.583S3.139,1.758,3.191,3.176c0,0,.519,1.539,1.5.38,0,0,.328-1.953,3.631.536l3.371,2.3s-.277-.985-2.213-2.558L7.409,2.415,9.847,2.5S6.683.548,4.5,1.844C4.487,1.827-1.495-1.25.355.583Z" transform="translate(40.478 90.137)" fill="#8f812e"/>
        <path id="Path_42" data-name="Path 42" d="M8.558,0a6.06,6.06,0,0,0-5.6,4.357c-1.418,4.392-.242-.173-.242-.173S1.349,8.921,0,9.942l.519.708S2.524,7.78,4.72,7.66a3.445,3.445,0,0,0-2.715.76c-1.573,1.089-.536.017-.536.017S3.181,3.354,6.38,3.2a2.429,2.429,0,0,0-2.749.8A6.349,6.349,0,0,1,8.558,0Z" transform="translate(57.967 70.871)" fill="#8f812e"/>
        <path id="Path_43" data-name="Path 43" d="M0,5.983A10.631,10.631,0,0,0,7.072,3.009s-3.683,2.559-4.6,1.764c0,0,3.925-4.841,6.069-4.772,0,0-3.25.674-4.651,2.715C3.873,2.75.9,5.931,0,5.983Z" transform="translate(53.402 82.126)" fill="#8f812e"/>
        <path id="Path_44" data-name="Path 44" d="M2.49,2.265,0,5.9A3.3,3.3,0,0,0,1.885,4.513S5.377,4.616,7.746,0c0,0-2.715,4.668-5.688,4.028L3.493,1.245Z" transform="translate(58.918 83.527)" fill="#8f812e"/>
        <path id="Path_45" data-name="Path 45" d="M8.939,0s4.893,4.98,5.152,9.7c0,0-2.559-5.861-3.838-6.708,0,0,2.714,10.961-4.634,15.509,0,0,3.994-6.83,1.21-12.5C6.829,6,3.752,16.01,0,18.258c0,0,5.014-8.454,5.273-11.913A7.885,7.885,0,0,1,8.939,0Z" transform="translate(62.238 65.857)" fill="#8f812e"/>
        <path id="Path_46" data-name="Path 46" d="M4.559,0s5.809,2.385,7.85,7.763a10.849,10.849,0,0,0,1.971,5.118s1.037,1.073-2.421.813c0,0-1.815-2.784-1.66-3.614,0,0,1.712,4.132,2.853,2.8,0,0-1.643-4.479-1.677-5.774,0,0-.5-2.438-1.539-1.384l.709,2.594S8.812,4.063,7.757,4.391a9.9,9.9,0,0,1,1.47,4.271S7.567,4.218,5.8,3.77L7.187,8.783a7.231,7.231,0,0,1,2.68,7.14s-2.04-5.48-2.8-6,.432-.1-.778-.535h0S8.795,16.131,7.429,21.2c0,0-1.521,2.767-3.423,3.25a2.239,2.239,0,0,0,.225-1.539s.086-3.544-2.04-4.824c0,0-5.481-6.1.9-15.111,0,0-3.873,8.264-.865,10.944,0,0,1.158-.07.45-2.939,0,0,.1-3.6,1.487-5.135a17.536,17.536,0,0,0-.121,9.873s1.729,2.144,2.109-2.369Z" transform="translate(72.012 78.393)" fill="#8f812e"/>
        <path id="Path_47" data-name="Path 47" d="M0,0S2.006,1.452,1.9,2.662c0,0,5.93,7.089,9.8,6.034,0,0,4.893-.986,6.812-2.593,0,0-6.363-1.971-7.573-1.245,0,0,3.614.26,4.461,1.384l1.037.311s-3.994,1.8-6.138,1.383A14.8,14.8,0,0,1,2.766,2.524,7.166,7.166,0,0,0,0,0Z" transform="translate(79.199 76.076)" fill="#8f812e"/>
        <path id="Path_48" data-name="Path 48" d="M0,3.389S7.953,6.328,11.065,3.8l.985-.726s-.311-.4-1.141,0c0,0,2.092-1.764,2.109-3.078,0,0-5.256,3.182-6.069,2.939,0,0,2.628.225,3.821-.761C10.754,2.213,8.973,5.567,0,3.389Z" transform="translate(86.858 75.729)" fill="#8f812e"/>
        <path id="Path_49" data-name="Path 49" d="M25.866,0a8.506,8.506,0,0,0-5.671,2.006s-1.643,1.176-2.593.277c0,0-2.075-.727-5.55,2.3,0,0-5.083,2.956-6.19,1.677,0,0,4.824-3.667,6.536-3.407,0,0-1.262-.83-6.933,3.164,0,0-1.573.864-.432-.328,0,0,5.412-4.254,7.175-4.029,0,0-1.5-.571-5.239,1.694,0,0-3.164,3.32-5.654,2.265L0,5.156S2.3,7.334,3.665,7.231c0,0,9.181.57,11.117-1.522,0,0,4.945,1.159,7.417-3.06Z" transform="translate(79.13 70.4)" fill="#8f812e"/>
        <path id="Path_50" data-name="Path 50" d="M0,.154S5,6.845,4.34,11.582c0,0,.761-5.222-.449-6.777,0,0,2.386,2.645,2.144,3.7A17.615,17.615,0,0,0,1.625.983C1.625,1,.432-.469,0,.154Z" transform="translate(100.673 51.353)" fill="#8f812e"/>
        <path id="Path_51" data-name="Path 51" d="M0,8.87S6.155,3.994,6.345,0c0,0-1.746,4.979-4.478,6.138,0,0-1.124-.743,1.21-2.957a4.524,4.524,0,0,0-2.04,3.492C1.037,6.691,2.334,7,0,8.87Z" transform="translate(96.541 41.928)" fill="#8f812e"/>
        <path id="Path_52" data-name="Path 52" d="M4.844,4.323S1.922,5,1.092,3.216c0,0-1.643-1.521-.9-3.216,0,0,.052,2.214,1.072,2.179L2.735.813S.919,3.078,2.458,3.32C2.458,3.337,4.706,3.337,4.844,4.323Z" transform="translate(105.805 41.479)" fill="#8f812e"/>
        <path id="Path_53" data-name="Path 53" d="M0,.631s8.42.917,9.354,2.559l4.6,3.164s.744-.276-1.781-1.919A17.578,17.578,0,0,0,2.956.147C2.974.13.294-.389,0,.631Z" transform="translate(102.143 50.235)" fill="#8f812e"/>
        <path id="Path_54" data-name="Path 54" d="M0,5.533s4.2.847,9.821-2.49c0,0,6.363-.052,8.4-3.042L8.593,2.921Z" transform="translate(114.66 48.065)" fill="#8f812e"/>
        <path id="Path_55" data-name="Path 55" d="M.469,7.486s5.256.934,8.385-4.875a2.225,2.225,0,0,1,2.3-1.418S11.932-.57,9.7.19L8.353.657S3.771.1,2.025,3.613C2.025,3.6-1.174,6.761.469,7.486Z" transform="translate(123.286 25.001)" fill="#8f812e"/>
        <path id="Path_56" data-name="Path 56" d="M1.25,8.317S4.829,5.067.368,0c0,0-.968.122.605,2.092,0,0-2.006,4.288-.259,5.118C.714,7.21,1.561,8.093,1.25,8.317Z" transform="translate(120.862 23.444)" fill="#8f812e"/>
        <path id="Path_57" data-name="Path 57" d="M.971,16.218a3.158,3.158,0,0,0,3.337-.554S5.38,15.371,5.83,16.72c0,0,3.493,3.976,7.21,2.2l2.2.052s-5.049-5.757-9.129-4.012c0,0-1.712,1.159-.173-.38,0,0,1.262-2.542,3.112-2.006l.813.035s4.2,4.081,7.469,3.3c0,0,.813-4.72-6.622-4.529,0,0-2.472,1.089-1.435-.243,0,0,6.051-2.766,7.037-1.763,0,0,5.066,3.423,9.2-.519,0,0-3.579-4.132-9.2-.812L9.824,10.305A7.774,7.774,0,0,0,12.383,0s-1.072,2.3-2.006,2.472c0,0-3.7,4.929-.9,6.934,0,0-.156,3.06-3.078,3.164,0,0,.38-4.616-.813-5.342,0,0-3.908,3.129-4.928,3.06,0,0,2.472,3.8,5,2.749,0,0-.743,3.181-4.668,2.576C1.023,15.6-1.242,16.1.971,16.218Z" transform="translate(86.302 16.269)" fill="#8f812e"/>
        <path id="Path_58" data-name="Path 58" d="M.679,13.313s7.607.813,12.673-4.478c0,0-4.53,3.475-6.536,2.818,0,0,4.409-2.005,5.083-3.25,0,0-7.314,4.72-9.371,3.718,0,0-.484-1.418,1.193-.882,0,0,3.873-.623,5-2.489,0,0-4.236,2.265-5.654,1.607A17.2,17.2,0,0,0,12.8,0S4.708,9.751,1.319,9.837C1.3,9.837-1.154,12.068.679,13.313Z" transform="translate(78.727 13.123)" fill="#8f812e"/>
        <path id="Path_59" data-name="Path 59" d="M.473,5.135S-.461,4.115,2.582,0C2.582,0-1.325,3.181.473,5.135Z" transform="translate(79.487 17.152)" fill="#8f812e"/>
        <path id="Path_60" data-name="Path 60" d="M4.876,11.982S6.1,3.39,0,0C-.017,0,7.642,3.856,4.876,11.982Z" transform="translate(73.147 7.105)" fill="#8f812e"/>
        <path id="Path_61" data-name="Path 61" d="M5.325,9.509S6.034,1.954,0,0C0,0,6.259,4.236,5.325,9.509Z" transform="translate(73.891 6)" fill="#8f812e"/>
        <path id="Path_62" data-name="Path 62" d="M.242,11.251S2.2,4.317,0,.306c0,0,.484-.881.968.346C.968.652,3.337,9.229.242,11.251Z" transform="translate(82.138 1.457)" fill="#8f812e"/>
        <path id="Path_63" data-name="Path 63" d="M.238,9.319S5.286,1.815,12.686.64c0,0-5,.346-8.04,3.1A8.55,8.55,0,0,1,10.231,0s-5.118.761-7.4,4.65C2.831,4.651-.973,7.936.238,9.319Z" transform="translate(84.477 0)" fill="#8f812e"/>
        <path id="Path_64" data-name="Path 64" d="M5.135,0S-.432,4.547,2.04,9.647c0,0-1.072,2.507-2.04,2.248,0,0,1.262.779,3.389-1.729,0,0,3.959-.657,3.717-6.207C7.106,3.941,6,.518,5.135,0Z" transform="translate(111.825 80.865)" fill="#8f812e"/>
        <path id="Path_65" data-name="Path 65" d="M1.146,5.377A7.527,7.527,0,0,0,3.757,3.32a7.037,7.037,0,0,1,7.175-1.47S13.889,1.314,14.719,0c0,0,.329,2.957-3.147,5.533,0,0-4.634,4.894-10.339.761C1.232,6.293-1.482,5.706,1.146,5.377Z" transform="translate(143.305 62.157)" fill="#8f812e"/>
        <path id="Path_66" data-name="Path 66" d="M.605,0S5.239,4.685,6.9,3.457c0,0,7.244-1.676,9.872,2.387,0,0,2.645.293,3.354-.4,0,0-1.971,3.095-9.233,3.423A6.961,6.961,0,0,1,5.827,4.893L0,.881Z" transform="translate(142.48 69.541)" fill="#8f812e"/>
        <path id="Path_67" data-name="Path 67" d="M1.656.128A3.992,3.992,0,0,1,.7,2.929S-.54,7.458.947,10.26c0,0,1.176,3.959-.726,4.375,0,0-1.159,1.8,1.833.276,0,0,2.715-3.112,2.991-5.913A9.336,9.336,0,0,0,2.935,1.528C2.952,1.563,2.589-.529,1.656.128Z" transform="translate(142.709 72.835)" fill="#8f812e"/>
      </g>
    </g>
    <g id="Group_176" data-name="Group 176" transform="translate(14.285 7.302)">
      <g id="Group_175" data-name="Group 175" transform="translate(0 0)">
        <path id="Path_68" data-name="Path 68" d="M11.742,1.972S13.056,5.447,7.99,9.354c0,0,1.3-3.942.38-5.6a4.16,4.16,0,0,1,.847,3.337s.83-2.784-.709-4.5A4.231,4.231,0,0,0,7.23,3.839S5.812,7.332,6.486,9.647a9.545,9.545,0,0,1,.052-5.6,7.783,7.783,0,0,0-2.2,5.119,13.462,13.462,0,0,1,.415-3.718,13.762,13.762,0,0,0-4.72,6.276S-.827,9.337,5.795,3.891A3.453,3.453,0,0,0,1.818,4.945S2.2,2.819,6.659,3.182c0,0,1.487-.173.536-.83,0,0-2.991-.761-5.014.571,0,0,1.625-1.764,5.671-.762,0,0,1.21-.034.553-.812,0,0-3.06-1.125-5.343.121,0,0,1.037-2.126,6.294-.381,0,0,.64.156-.017-1.089C9.339-.018,11.6.934,11.742,1.972Z" transform="translate(0 75.365)" fill="#4d5612"/>
        <path id="Path_69" data-name="Path 69" d="M5.654,3.873s-3.769-.881-4.461-.328a9.68,9.68,0,0,1,3.441-.381S1.729,1.176,0,1.816c0,0,.45-1.09,4.236.553A1.876,1.876,0,0,1,3.614,0S3.25,2.092,6.242,3.752C6.259,3.752,6.674,4.564,5.654,3.873Z" transform="translate(7.368 65.338)" fill="#4d5612"/>
        <path id="Path_70" data-name="Path 70" d="M1.313,4.65A4.369,4.369,0,0,1,.725,0S-1.246,2.212,1.313,4.65Z" transform="translate(8.753 40.286)" fill="#4d5612"/>
        <path id="Path_71" data-name="Path 71" d="M4.53,15.509S4.478,3.751,6.155,0A33.473,33.473,0,0,0,4.08,12.535s-.467,1.349-1.366-.933L2.04,6.017s-.277,4.841,1,8.04A4.212,4.212,0,0,1,1.21,10.564S.173,12.155,3.147,14.592c0,0,.1,1.9-1.435-.277L0,12.431s1.573,3.648,3.614,3.683C3.614,16.131,4.513,17.29,4.53,15.509Z" transform="translate(15.805 27.958)" fill="#4d5612"/>
        <path id="Path_72" data-name="Path 72" d="M4.15,9.544S4.443,3.147,0,0C0,0,5.187,3.441,4.15,9.544Z" transform="translate(25.851 16.874)" fill="#4d5612"/>
        <path id="Path_73" data-name="Path 73" d="M5.343,2.947A5.439,5.439,0,0,0,0,.094S4.755-.8,5.343,2.947Z" transform="translate(38.835 22.053)" fill="#4d5612"/>
        <path id="Path_74" data-name="Path 74" d="M0,2.456S2.593.1,3.769,0Z" transform="translate(54.759 4.063)" fill="#4d5612"/>
        <path id="Path_75" data-name="Path 75" d="M3.977,8.023A12.2,12.2,0,0,0,2.248,2.818s1.089,3.216-.035,3.113C2.213,5.931.1,2.23,0,0,0,0,.311,5.81,2.7,6.8c0,0,1.158,1.158.45,2.023C3.147,8.818,4.271,9.787,3.977,8.023Z" transform="translate(57.387 13.953)" fill="#4d5612"/>
        <path id="Path_76" data-name="Path 76" d="M15.146,4.253a4.24,4.24,0,0,0-3.752-.847S4.322,3.787,0,0C0,0,2.144,3.025,10.841,4.392c0,0-1.262,1.332-4.288,1.037,0,0,1.8.692,5.827-.639,0,0,2.818-.744-.035.985,0,0-2.576,1.4-3.735.6,0,0,2.265,1.383,6.172-1.59C14.766,4.807,15.786,5.221,15.146,4.253Z" transform="translate(36.64 37.104)" fill="#4d5612"/>
        <path id="Path_77" data-name="Path 77" d="M5.844,0S2.2,2.109,0,1.21A5.384,5.384,0,0,0,5.844,0Z" transform="translate(44.731 43.968)" fill="#4d5612"/>
        <path id="Path_78" data-name="Path 78" d="M0,4.149S2.127.917,1.228,0C1.21,0,1.072,2.939,0,4.149Z" transform="translate(52.892 0)" fill="#4d5612"/>
        <path id="Path_79" data-name="Path 79" d="M4.409,11.014A6.316,6.316,0,0,1,2.835,5.792,12.185,12.185,0,0,0,0,0S2.057,1.418,3.493,7.054c0,0,1.124,4.357.9,1.211,0,0,.864-4.547-.294-6.968a18.36,18.36,0,0,1,.882,6.951s.363,4.825.743.865c0,0,.864-5.135-.121-6.778,0,0,1.781.433.346,8.714,0,0,.743,2.715,1.452.57l.052,2.8C7.469,14.4,3.856,13.78,4.409,11.014Z" transform="translate(59.186 10.529)" fill="#4d5612"/>
        <path id="Path_80" data-name="Path 80" d="M0,7.279S2.853,1.677,7.193,0C7.193-.017,2.628.311,0,7.279Z" transform="translate(82.44 0.276)" fill="#4d5612"/>
        <path id="Path_81" data-name="Path 81" d="M0,8.938A16.62,16.62,0,0,0,10.287,0S4.7,8.143,0,8.938Z" transform="translate(77.893 12.881)" fill="#4d5612"/>
        <path id="Path_82" data-name="Path 82" d="M0,1.072S3.285,1.349,5.239,0Z" transform="translate(78.619 22.892)" fill="#4d5612"/>
        <path id="Path_83" data-name="Path 83" d="M1.521,4.2S1.591.708,0,0C0,0,1.884.173,1.521,4.2Z" transform="translate(88.198 23.324)" fill="#4d5612"/>
        <path id="Path_84" data-name="Path 84" d="M0,0S2.075,2.248,3.51,1.366a1.992,1.992,0,0,1,1.833.726A4.254,4.254,0,0,0,1.694.64Z" transform="translate(89.789 29.98)" fill="#4d5612"/>
        <path id="Path_85" data-name="Path 85" d="M6.38,3.082s-.086-.1-.259-.294A8.587,8.587,0,0,0,0,0S5.878,1.525,6.38,3.082Z" transform="translate(94.353 26.415)" fill="#4d5612"/>
        <path id="Path_86" data-name="Path 86" d="M6.484.481S1.936-.59,0,.464C-.017.464,5.377-.055,6.484.481Z" transform="translate(100.941 22.565)" fill="#4d5612"/>
        <path id="Path_87" data-name="Path 87" d="M0,7.378S2.956,3.66,2.161,1.188C1.383-1.3,2.369.894,2.369.894S1.539,5.511,0,7.378Z" transform="translate(94.319 15.341)" fill="#4d5612"/>
        <path id="Path_88" data-name="Path 88" d="M1.573.179A14.185,14.185,0,0,1,3.8,6.11S1.366-.08.553.438L0,1.233C0,1.251.467-.564,1.573.179Z" transform="translate(65.911 65.452)" fill="#4d5612"/>
        <path id="Path_89" data-name="Path 89" d="M5.515,10.408s1.4-2.939-.622-8.109a1.981,1.981,0,0,1-.5-2.3S1.366,2.575,3.078,5.81c0,0-.8,9.077-3.078,11.307,0,0,3.925-3.925,3.51-12.293,0,0-.692-2.558.346-2.542A12.023,12.023,0,0,1,5.515,10.408Z" transform="translate(62.436 66.912)" fill="#4d5612"/>
        <path id="Path_90" data-name="Path 90" d="M6.19,0S3.994,6.276,0,8.523A11.849,11.849,0,0,0,6.19,0Z" transform="translate(58.2 74.865)" fill="#4d5612"/>
        <path id="Path_91" data-name="Path 91" d="M0,3.032S8.8-.305,12.431,1.649l3.423.086S9.336-.962,6.916.369C6.916.369.328,1.458,0,3.032Z" transform="translate(29.222 65.401)" fill="#4d5612"/>
        <path id="Path_92" data-name="Path 92" d="M0,0S1.193,2.2,2.715.363A2.481,2.481,0,0,1,0,0Z" transform="translate(31.349 69.902)" fill="#4d5612"/>
        <path id="Path_93" data-name="Path 93" d="M3.752,0S5.792,6.276,0,9.44C0,9.458,4.634,5.688,3.752,0Z" transform="translate(28.358 80.951)" fill="#4d5612"/>
        <path id="Path_94" data-name="Path 94" d="M2.628,0S3.389,4.5,0,6.83C0,6.83,2.836,3.406,2.628,0Z" transform="translate(32.456 91.03)" fill="#4d5612"/>
        <path id="Path_95" data-name="Path 95" d="M0,.306S2.507.029,3.371.842c0,0,1.833,1.106,5.36-.086,0,0-4.271.829-5.792-.64C2.922.1.726-.23,0,.306Z" transform="translate(36.657 81.665)" fill="#4d5612"/>
        <path id="Path_96" data-name="Path 96" d="M.035.366s1.193,1.9,2.974,1.487c0,0,2.663-.727,4.409.345,0,0-1.176-1.919-5.55-.916,0,0-1.867-1.159,2.2-.969A11.88,11.88,0,0,0,0,.124Z" transform="translate(40.392 89.006)" fill="#4d5612"/>
        <path id="Path_97" data-name="Path 97" d="M1,0S-.657,4.757.294,8.318c0,0-.329-4.6.778-6.933,0,0,.9.345,1.487,2.317C2.559,3.719,1.919-.085,1,0Z" transform="translate(37.59 97.357)" fill="#4d5612"/>
        <path id="Path_98" data-name="Path 98" d="M0,0S.726,7.711,1.573,8.61c0,0,3.838,3.164,3.337,7.054,0,0,.294-4.876-2.887-7.711,0,0-1.954-5.671-.847-5.343,0,0,2.9,2.317,2.853,5.2C4.011,7.8,4.634,4.945,0,0Z" transform="translate(74.712 76.905)" fill="#4d5612"/>
        <path id="Path_99" data-name="Path 99" d="M2.182,11.2A11.4,11.4,0,0,1,1.94,0C1.922,0-2.573,5.031,2.182,11.2Z" transform="translate(72.91 85.601)" fill="#4d5612"/>
        <path id="Path_100" data-name="Path 100" d="M0,6.259a21.559,21.559,0,0,0,11.982-.692L23.359,0A32.765,32.765,0,0,0,11.74,4.789C11.757,4.807,5.377,7.78,0,6.259Z" transform="translate(79.069 69.055)" fill="#4d5612"/>
        <path id="Path_101" data-name="Path 101" d="M0,.353s5.723.9,7.59-.312A46.308,46.308,0,0,0,0,.353Z" transform="translate(87.403 77.746)" fill="#4d5612"/>
        <path id="Path_102" data-name="Path 102" d="M0,3.181S5.36,2.991,6.242,0A49.448,49.448,0,0,1,0,3.181Z" transform="translate(91.362 73.983)" fill="#4d5612"/>
        <path id="Path_103" data-name="Path 103" d="M0,0S3.216,3.718,3.371,8.213C3.371,8.213,3.89,2.784,0,0Z" transform="translate(99.471 50.468)" fill="#4d5612"/>
        <path id="Path_104" data-name="Path 104" d="M0,1.729S6.19,1.607,7.4,0Z" transform="translate(121.654 47.253)" fill="#4d5612"/>
        <path id="Path_105" data-name="Path 105" d="M0,5.169S3.717,1.02,7.763,0C7.763,0,.225,4.686,0,5.169Z" transform="translate(121.775 25.123)" fill="#4d5612"/>
        <path id="Path_106" data-name="Path 106" d="M1.418,6.916A6.2,6.2,0,0,0,0,0S2.749,4.478,1.418,6.916Z" transform="translate(118.784 22.304)" fill="#4d5612"/>
      </g>
      <path id="Path_107" data-name="Path 107" d="M0,8s3.717-3.32,2.092-8C2.109,0,2.2,6.621,0,8Z" transform="translate(112.698 80.069)" fill="#4d5612"/>
      <path id="Path_108" data-name="Path 108" d="M.173,0S-.484,3.526.761,5.273c0,0,.692,2.057-.156,3.32a11.313,11.313,0,0,0,.726-4.617A4.74,4.74,0,0,1,.173,0Z" transform="translate(142.574 71.095)" fill="#4d5612"/>
      <path id="Path_109" data-name="Path 109" d="M0,0S5.585.277,7.141,1.729c0,0,4.374.882,5.118-.692C12.276,1.055,3.734,5.2,0,0Z" transform="translate(147.519 72.375)" fill="#4d5612"/>
      <path id="Path_110" data-name="Path 110" d="M0,0S-.172,2.4,4.185,3.372C4.2,3.354.4,1.8,0,0Z" transform="translate(146.896 73.291)" fill="#4d5612"/>
      <path id="Path_111" data-name="Path 111" d="M0,1.332S3.095,3.873,10.789,0c0,0-6.657,2.456-7.8,1.591,0,0-.4-.674,2.075-1.521C5.066.069,1.262,1.521,0,1.332Z" transform="translate(141.952 64.785)" fill="#4d5612"/>
    </g>
    <g id="Group_182" data-name="Group 182" transform="translate(120.709 56.586)">
      <path id="Path_112" data-name="Path 112" d="M2.315,11.152S2.4,17.913,6.9,15.7c0,0,1.245,1.072,2.265-1.9L10.3,12.38s-1.487,5.239.294,7.9c0,0,1.573,7.314,4.582,3.147,0,0,6.155,1.746,5.758-4.461,0,0,2.853-.035,1.47-1.556l6.5-9.475S34.716,5.136,32,2.681L16.7,0,10.8,2.352s-5.1,2.576.588,2.8L6.136,7.47s-5.567-.6-5.688,1C.447,8.473-1.368,10.91,2.315,11.152Z" transform="translate(0 9.258)" fill="#f98cf1"/>
      <path id="Path_113" data-name="Path 113" d="M10.764,10.132s-4.53.968-6.086,3.89c0,0-3.25,2.213-4.392.553,0,0-1.366,2.092,1.867,2.68,0,0-1.418,1.833,1.262,1.332A5.6,5.6,0,0,0,6.459,16.3s1.781-1.331.605.069c0,0-2.68,3.579-1.452,4.651,0,0,.882-.346,1.729-4.1,0,0,.553,1.106,1.729-.761,0,0,3.354-2.749,4.236-2.49,0,0-4.876,5.5-2.922,11.809,0,0,.346-.19,1.521-3.821,0,0,1.435-.847.277,1.712l.986,7.383L12.821,23.5s.761-3.8,1.245.535l.657,4.876s.519-1.384-.363-7.159c0,0-.121-3.924.813.208l.864,5.5s-.536-4.478.761-.985l-.882-6.743,2.334,6.224s-.692-3.717.536-.778c0,0-2.4-7.573-.986-9.284,0,0,1.66,7.539,2.991,9.2,0,0-3.285-8.178-1.781-10.149,0,0-.692,6.017,4.046,9.129a2.072,2.072,0,0,0,1.763-.917,4.624,4.624,0,0,0,6-1.763s3.614-.986,3.06-4.46c0,0,1.9-2.663-.173-4.029a3.289,3.289,0,0,1-2.23-2.783s7.089-1.3,7.02-6.865c0,0-.449-1.711-3.164-3.25L26.066,2.472s.035-3.44-3.043-1.158C22.953,1.314,10.522,2.887,10.764,10.132Z" transform="translate(0.161 3.138)" fill="#ed78e0"/>
      <g id="Group_177" data-name="Group 177" transform="translate(5.79 0)">
        <path id="Path_114" data-name="Path 114" d="M8.092,16.157s-3.268.519-4.322,2.058c0,0-2.455,2.87-1.4-.069,0,0-1.055,0-1.729,1.573,0,0,.035-1.556,2.4-3.63,0,0-1.643-.312-3.043,1.729,0,0-.086-2.818,5.671-4.478,0,0-7.193-.709-4.409-6.431A3.693,3.693,0,0,1,4.928,3.554s1.158-6.19,5.585-2.231c0,0,.882-1.988,2.559-.76,0,0,.916,1.261,1.279.137,0,0,3.614.052,3.977,5.084,0,0,.968.587,1.694-1.193,0,0,.519-2.7,5.429-2.282,0,0,2.3-.83,2.49-1.919,0,0,2.732-1.47,2.628,2.507,0,0-.19,1.383-1.02,1.487s-.19.277-.19.277-4.789,2.714-6.276,3.32c0,0,4.132-1.28,4.6-1.954A26.58,26.58,0,0,1,23.532,8.6s-.882,1.176.467.726l4.737-1.694a49.273,49.273,0,0,1-5.256,2.473s.64,2.385,3.786,1.055c0,0,4.409-1.764,4.945-2.784,0,0-1.124,2.905-6.345,4.841a2.686,2.686,0,0,1-3.181-1.4s.156.985-.19,1.175c0,0,4.323,4.583,6.017,3.648,0,0,1.176,1.366-.225,3.406,0,0-4.046.587-5.879-4.547a3.8,3.8,0,0,0,.83,3.268s1.037,3.008-1.5,1.711c0,0-1.729-5.065-3.492-4.011,0,0,3.2,3.717,1.85,5.395,0,0-1.712,1.85-2.991-2.438,0,0-.086-2.818-1.815-1.73,0,0,1.314,2.456,1.02,2.888,0,0,0,4.1-1.539-.432s-.225-.294-.225-.294l-1.107-1.815s-.259-1.159.657-1.418c0,0,2.939.069,4.115-1.469a3.482,3.482,0,0,0,3.959-1.988,5.892,5.892,0,0,0,.017-3.077s1.937-1.383-.467-2.248c0,0-3.544-.727-4.305.328,0,0-4.392.761-4.253,2.058,0,0-3.579,1-4.7,4.028C8.386,14.273,9.25,15.9,8.092,16.157Z" transform="translate(0)" fill="#d34db3"/>
        <path id="Path_115" data-name="Path 115" d="M2.171.094A6.75,6.75,0,0,0,.512,7.581s.882,1.729,1.556-3.631c0,0,1.279-1.971,1.556.537,0,0,.761,4.633,2.092,3.268,0,0,1.089-.658-.674-3.77a1.661,1.661,0,0,1,.052-1.867S4.505.63,3.554,1.063C3.572,1.045,3.658-.373,2.171.094Z" transform="translate(6.353 16.98)" fill="#d34db3"/>
      </g>
      <g id="Group_179" data-name="Group 179" transform="translate(6.479 0.821)">
        <g id="Group_178" data-name="Group 178">
          <path id="Path_116" data-name="Path 116" d="M5.4,12.5s-.415-.8-2.006-.623c0,0-5.187-.259-2.732-6.19,0,0-1.591,4.979,3.112,4.323A3.429,3.429,0,0,1,1.991,5.395a4.484,4.484,0,0,0,4.426,5.014s1.228-.259-2.178-4.617A38.8,38.8,0,0,1,7.368,9.614s.588-2.075-2.109-5.4c0,0,2.922,2.248,3.493,4.617,0,0,1.452-.986-.329-4.547,0,0,2.23,3.441,1.781,4.149,0,0,2.472-1.954.173-7.59,0,0,1.988,3.718,1.521,5.828A8.983,8.983,0,0,0,12.088,0s2.351,2.905,1.452,5.931A5.576,5.576,0,0,0,14.284.363s3.233.259,2.922,5.9c0,0,.519,1.089,1.072-.225,0,0,.415-2.887,2.887-3.3,0,0-2.161,1.055-1.885,2.282,0,0,.138,2.507,2.576-1.4a2.8,2.8,0,0,1-2.784,2.438,2.352,2.352,0,0,0,1.176.035,4.466,4.466,0,0,0,2.766-2.092s.225,1.089-1.556,2.265c0,0,4.564-2.23,5.688-3.406,0,0,1.815-1.106,1.072-2.506,0,0,2.507,1.071.813,2.835,0,0-7.677,3.751-8.507,3.994,0,0-4.461-.329-5.014.83a49.321,49.321,0,0,0-6.4,2.819C9.149,10.824,6.832,13.97,5.4,12.5Z" transform="translate(0 0)" fill="#a43d80"/>
          <path id="Path_117" data-name="Path 117" d="M6.691,1.2s.035.813-2.334,1.4c0,0-3.026,1.332-3.216,2.9,0,0-.121-2.178,4.634-4.028a2.875,2.875,0,0,0-4.063.363L0,3.5S.605.125,4.789.3C4.772.3,8.282-.792,6.691,1.2Z" transform="translate(0.435 13.05)" fill="#a43d80"/>
          <path id="Path_118" data-name="Path 118" d="M1.118.074S-.784,4.31.374,6.886c0,0-.692-4.772,1.21-5.429,0,0-.035,2.3.5,2.922,0,0-.588-3.043-.225-3.821,0,0,.57,5.532,2.265,7.262,0,0-2.179-6.086-1.885-7,0,0,1.02,3.233,1.885,3.994,0,0-1.625-2.715-1.107-3.458C3,1.371,2.276-.375,1.118.074Z" transform="translate(6.718 16.179)" fill="#a43d80"/>
          <path id="Path_119" data-name="Path 119" d="M.586,2.2s-1.66,2.108.605,5.532c0,0-1.418-3.648-.225-5.273a10.78,10.78,0,0,1,3.06,5.256A12.627,12.627,0,0,0,1.555,2.456s.069-.1,1.193.087c0,0,2.853,2.161,2.766,4.719,0,0,.951-1.192-1.694-4.91,0,0-.553-1.314.968-.83,0,0,2.9,1.677,3.337,3.423,0,0,.138-1.625-3.078-3.786,0,0,2.04-2.283,4.668,1.47A3.972,3.972,0,0,0,6.517,0S4.753,1.332,4.269.346c0,0,0,.968-.64.208A3.414,3.414,0,0,1,.794,1.937Z" transform="translate(13.836 13.814)" fill="#a43d80"/>
          <path id="Path_120" data-name="Path 120" d="M1.1,0a8.668,8.668,0,0,0,5,3.908A9.3,9.3,0,0,1,1.138.9,7.532,7.532,0,0,0,4.32,5.239S.845,3.458.9,1.246c0,0-.57,3.2.986,4.478,0,0-2.87-2.317-1.521-4.634C.343,1.107-.487.294,1.1,0Z" transform="translate(20.874 11.861)" fill="#a43d80"/>
        </g>
        <path id="Path_121" data-name="Path 121" d="M.448,1A5.672,5.672,0,0,0,4.7,0S1.053,1.4.258.276C.258.276-.434.934.448,1Z" transform="translate(21.167 9.009)" fill="#a43d80"/>
      </g>
      <g id="Group_180" data-name="Group 180" transform="translate(6.067 1.185)">
        <path id="Path_122" data-name="Path 122" d="M8.109,13.089S2.438,15.042.553,18.275c0,0-1.729-.64,6.5-5.377A8.707,8.707,0,0,0,0,16.391S1.85,12.9,7.227,12.483c0,0-.4-1.141-2.663-.847,0,0-4.876-.311-2.818-4.1,0,0-.813,3.233,1.176,3.182a2.08,2.08,0,0,1-.588-2.784s-.052,3.545,4.409,3.026c0,0-4.858.138-4.789-4.686,0,0,.83,5.1,5.118,4.375,0,0-2.075-.45-2.282-1.557a3.413,3.413,0,0,0,3.959.554s1.314-.173-3.06-5.775c0,0,3.441,3.008,3.856,5.9,0,0,.467-1.954-1.072-5.066,0,0,1.988,3.734,1.764,4.668,0,0,2.127-.587.744-5.654a9.639,9.639,0,0,1,.882,4.72s2.248-3.112.916-8.125a8.623,8.623,0,0,1,.692,5.774s1.176.813,1.228-3.06c0,0,.692,2.628-.052,3.855A7.112,7.112,0,0,0,14.714,0s3.112,1.919,2.714,4.564c0,0-.294,1.85-1.089,2.385,0,0-2.974.554-3.51,2.127A7.331,7.331,0,0,0,8.109,13.089Z" transform="translate(0 0)" fill="#6d001b"/>
        <path id="Path_123" data-name="Path 123" d="M0,3.164A6.113,6.113,0,0,0,2.178,0s.156.865-1.107,3.025c0,0,4.755-.622,7.78-2.991,0,0-1.815,2.006-6.622,3.354C2.213,3.389.692,2.784,0,3.164Z" transform="translate(17.912 3.665)" fill="#6d001b"/>
        <path id="Path_124" data-name="Path 124" d="M1.308.415S4.437,3.751,6.1,3.7c0,0-3.925-1.211-5.031-2.922,0,0-2.179.346,0,3.787,0,0-2.161-2.991-.329-4.564C.72,0,.737.777,1.308.415Z" transform="translate(21.1 11.999)" fill="#6d001b"/>
        <path id="Path_125" data-name="Path 125" d="M0,0S2.8,2.248,2.853,5.308C2.853,5.308,3.112,1.608,0,0Z" transform="translate(17.082 15.128)" fill="#6d001b"/>
        <path id="Path_126" data-name="Path 126" d="M.535,0a6.539,6.539,0,0,0,.778,4.72A3.751,3.751,0,0,1,.535,0Z" transform="translate(14.749 15.543)" fill="#6d001b"/>
        <path id="Path_127" data-name="Path 127" d="M2.27,0S-.583,2.594.143,5.135A4.625,4.625,0,0,1,2.27,0Z" transform="translate(5.977 15.889)" fill="#6d001b"/>
      </g>
      <path id="Path_128" data-name="Path 128" d="M4.955,2.6A4.9,4.9,0,0,0,1.428,4.974S-.837,6.339.338,7.965c0,0-.38,1.175.726,1.383,0,0,1.608,2.576,4.634.276,0,0,4.063-.363,4.72-2.022,0,0,4.755.293,3.735-4.392,0,0,1.262-1.348.57-2.559A2.351,2.351,0,0,0,11.905.34S8.931-.4,8.067,1.2A3.205,3.205,0,0,0,4.955,2.6Z" transform="translate(13.924 7.64)" fill="#f297e1"/>
      <path id="Path_129" data-name="Path 129" d="M0,1.833S3.285,1.556,3.371,0A4.665,4.665,0,0,1,0,1.833Z" transform="translate(21.748 13.461)" fill="#a43d80"/>
      <path id="Path_130" data-name="Path 130" d="M.027,5.772s1,4.513,3.354,1.919c0,0,2.9.882,3.8-1.469,0,0,3.458.432,3.458-1.557,0,0,3.026-.95,1.677-2.144,0,0,1.107-1.383-1.089-1.764,0,0-2.593-1.694-3.181-.017,0,0-3.147.1-3.372,1.833,0,0-3.873-.433-2.784,1.954C1.912,4.511-.267,4.511.027,5.772Z" transform="translate(14.667 8.501)" fill="#f9aaee"/>
      <path id="Path_131" data-name="Path 131" d="M5.2,2.915S4.625,4.54,3.121,4.107c0,0-1.937-.138-2.248-1.158,0,0-1.418-1.782-.64-2.076,0,0,1-1.331,1.919-.708a1.355,1.355,0,0,1,1.8.917C3.933,1.082,5.558,1.912,5.2,2.915Z" transform="translate(13.718 13.693)" fill="#ea7f50"/>
      <g id="Group_181" data-name="Group 181" transform="translate(14.18 7.997)">
        <path id="Path_132" data-name="Path 132" d="M0,2.6A4.4,4.4,0,0,1,3.233.056S.519-.6,0,2.6Z" transform="translate(1.327 3.194)" fill="#a43d80"/>
        <path id="Path_133" data-name="Path 133" d="M0,1.691S.934-.487,2.818.413C2.818.413.778-1.109,0,1.691Z" transform="translate(5.183 1.351)" fill="#a43d80"/>
        <path id="Path_134" data-name="Path 134" d="M0,1.314S.519-.518,3.3.416C3.3.416.588-.968,0,1.314Z" transform="translate(8.226 0.12)" fill="#a43d80"/>
        <path id="Path_135" data-name="Path 135" d="M.865,2.109S2.784.19,0,0C-.017,0,2.2.45.865,2.109Z" transform="translate(12.86 0)" fill="#a43d80"/>
        <path id="Path_136" data-name="Path 136" d="M1.165,1.5S-.357.985.249,0C.249.017-.72,1.176,1.165,1.5Z" transform="translate(0.56 7.521)" fill="#c66139"/>
        <path id="Path_137" data-name="Path 137" d="M.5,1.729s-1-.95.692-1.729C1.189,0-.938.605.5,1.729Z" transform="translate(0 5.532)" fill="#c66139"/>
        <path id="Path_138" data-name="Path 138" d="M3.13,0S1.193,1.3,0,.225C-.017.225.675,1.072,3.13,0Z" transform="translate(2.053 9.301)" fill="#a43d80"/>
        <path id="Path_139" data-name="Path 139" d="M0,2.109S4.461,1.729,4.806,0C4.806,0,3.873,1.313,0,2.109Z" transform="translate(5.304 6.881)" fill="#a43d80"/>
        <path id="Path_140" data-name="Path 140" d="M0,4.34S4.53,3.7,3.026,0C3.026.018,4.063,3.32,0,4.34Z" transform="translate(10.577 2.593)" fill="#a43d80"/>
        <path id="Path_141" data-name="Path 141" d="M1.989,1.3S-.051,1.833,0,0A1.6,1.6,0,0,0,1.989,1.3Z" transform="translate(1.62 8.108)" fill="#c66139"/>
        <path id="Path_142" data-name="Path 142" d="M1.082,1.158S-.111,1.124.166,0C.166,0-.577,1.089,1.082,1.158Z" transform="translate(0.729 6.656)" fill="#c66139"/>
        <path id="Path_143" data-name="Path 143" d="M.616,1.643S-1.113.346,1.221,0C1.221,0-.266.743.616,1.643Z" transform="translate(0.815 5.532)" fill="#c66139"/>
        <path id="Path_144" data-name="Path 144" d="M0,2.5S.605-.712,3.095.429C3.095.429.743-1.4,0,2.5Z" transform="translate(3.298 2.578)" fill="#a43d80"/>
        <path id="Path_145" data-name="Path 145" d="M0,2.665S.83-.309,3.112.193C3.112.21.761-1.052,0,2.665Z" transform="translate(6.393 1.207)" fill="#a43d80"/>
        <path id="Path_146" data-name="Path 146" d="M0,1.231S2.023-1.224,3.026.8C3.026.8,1.815-.48,0,1.231Z" transform="translate(10.387 0.1)" fill="#a43d80"/>
        <path id="Path_147" data-name="Path 147" d="M0,2.7A2,2,0,0,0,.743,0S2.213,1.366,0,2.7Z" transform="translate(12.669 0.898)" fill="#a43d80"/>
        <path id="Path_148" data-name="Path 148" d="M0,3.043S2.628,3.977,3.579,0C3.579,0,1.988,3.268,0,3.043Z" transform="translate(9.402 3.959)" fill="#a43d80"/>
        <path id="Path_149" data-name="Path 149" d="M0,.674S2.023,1.988,3.147,0C3.147,0,1.539,1.643,0,.674Z" transform="translate(3.35 8.109)" fill="#a43d80"/>
        <path id="Path_150" data-name="Path 150" d="M0,1.279A2.553,2.553,0,0,0,3.527,0,3.679,3.679,0,0,1,0,1.279Z" transform="translate(6.151 6.604)" fill="#a43d80"/>
        <path id="Path_151" data-name="Path 151" d="M0,2.075S1.245,2.041.743,0C.743,0,2.144,2.006,0,2.075Z" transform="translate(11.788 2.282)" fill="#a43d80"/>
        <path id="Path_152" data-name="Path 152" d="M3.838,1.265S2.749-.861,0,.729C.017.729,2.559-1.225,3.838,1.265Z" transform="translate(9.488 0.688)" fill="#a43d80"/>
        <path id="Path_153" data-name="Path 153" d="M3.112,1.47S.242,2.559,0,0A2.578,2.578,0,0,0,3.112,1.47Z" transform="translate(1.621 7.14)" fill="#c66139"/>
        <path id="Path_154" data-name="Path 154" d="M0,1.574S1.677,2.49,2.663,0A2.972,2.972,0,0,1,0,1.574Z" transform="translate(4.284 6.725)" fill="#a43d80"/>
        <path id="Path_155" data-name="Path 155" d="M0,2.316S2.369,2.074,1.591,0A2.215,2.215,0,0,1,0,2.316Z" transform="translate(10.422 3.285)" fill="#a43d80"/>
        <path id="Path_156" data-name="Path 156" d="M2.784,1.452S3.441-.277,0,.224C0,.241,3.683-.8,2.784,1.452Z" transform="translate(9.505 1.176)" fill="#a43d80"/>
        <path id="Path_157" data-name="Path 157" d="M.788,2.594S-1.442.553,1.6,0C1.6,0-.889,1.072.788,2.594Z" transform="translate(1.698 5.083)" fill="#c66139"/>
        <path id="Path_158" data-name="Path 158" d="M0,2.766S2.455,4.824,4.253,0C4.253.018,2.593,3.51,0,2.766Z" transform="translate(3.489 4.634)" fill="#a43d80"/>
        <path id="Path_159" data-name="Path 159" d="M0,2.722S1.556-1.047,5.446.285C5.446.285,1.3-.2,0,2.722Z" transform="translate(4.474 3.156)" fill="#a43d80"/>
        <path id="Path_160" data-name="Path 160" d="M0,4.046S3.959,1.314,1.037,0C1.037,0,5.014.777,0,4.046Z" transform="translate(9.056 1.728)" fill="#a43d80"/>
        <path id="Path_161" data-name="Path 161" d="M0,1.262S2.749,4.322,3.25,0C3.25,0,2.645,3.285,0,1.262Z" transform="translate(6.238 4.322)" fill="#a43d80"/>
        <path id="Path_162" data-name="Path 162" d="M1.561,2.524S-1.274,3.094.7,0C.7,0-.168,3.146,1.561,2.524Z" transform="translate(3.95 3.907)" fill="#a43d80"/>
      </g>
    </g>
    <g id="Group_187" data-name="Group 187" transform="translate(116.32 32.017)">
      <path id="Path_163" data-name="Path 163" d="M1.222,6.1S-2.426-1.111,2.882.323a4.714,4.714,0,0,1,3.51.052l4.08.709,3.769,3.043,3.579,4.08,1.089,4.149.035,3.269-.916,2.438-3.51,2.4-2.282-1.175-1.694-2.266L6.427,14.1,3.989,10.853A9.67,9.67,0,0,1,1.222,6.1Z" transform="translate(0 1.709)" fill="#f98cf1"/>
      <g id="Group_183" data-name="Group 183" transform="translate(1.153 2.595)">
        <path id="Path_164" data-name="Path 164" d="M19.209,12.63a2.544,2.544,0,0,0,1.3-3.908s.536-2.438-2.628-3.026a5.078,5.078,0,0,0-4.046-4.045s-1.625.864-2.334-1.5c0,0-4.772-.743-5.343,1.124l-.5,1.124s1.694-1.487,2.991-.9c0,0,2.075.415,2.144,1.66,0,0,3.25,2.092,2.593,3.925a4.942,4.942,0,0,1-3.372,2.663s1.089.9,3.389-.847c0,0,2.732,1.573,1.262,2.87,0,0,2.23-.519,2.455,1.124,0,0-.138,1.383-1.072,1.556,0,0,1.124,2.041-1.521,3.285,0,0-1.02.657-1.366-.138,0,0-1.331,1.21-2.369-1.332l-2.455-1.9s-.761-.933.588-1.539c0,0,.1-1.539,2.611-1.21,0,0-4.478.415-3.251-1.417,0,0-3.475-.986-.294-2.992,0,0-5.118,1.072-3.735-2.559,0,0-1.833.778-2.2-.467,0,0,0,2.213-2.058,1.02l3.078,5.291,1.9,1.954L5.5,14.2s5.135,2.248,5.723,3.925c0,0,.19,2.317.553,2.49,0,0,1.4.761,1.539-.346,0,0,1.9,1.5,2.49-.416s.069.484.069.484,5.464.9,4.374-3.406C20.3,16.952,21.751,15.431,19.209,12.63Z" fill="#ed78e0"/>
        <path id="Path_165" data-name="Path 165" d="M5.187.475S2.057-.407,0,.233l4.772.847S3.631.457,5.187.475Z" transform="translate(8.507 11.221)" fill="#ed78e0"/>
        <path id="Path_166" data-name="Path 166" d="M1.021,4.894S3.078,2.3,5.222,1.85c0,0-2.7.519-1.452-1.85C3.77,0-.068,3.527,0,4.686.018,4.668.208,5.792,1.021,4.894Z" transform="translate(6.033 4.641)" fill="#ed78e0"/>
        <path id="Path_167" data-name="Path 167" d="M1.158,5.531s.415-3.475,2.49-4.72c0,0-1.712,1.47-2.991-.069S.362.535.362.535,1.452,4.6.276,4.926C.276,4.943.829,6.984,1.158,5.531Z" transform="translate(3.943 2.292)" fill="#ed78e0"/>
        <path id="Path_168" data-name="Path 168" d="M1.331,5.9S1.625,1.849,0,0C0,0,.657,5.255.173,5.9.173,5.9,1.314,6.881,1.331,5.9Z" transform="translate(1.21 0.129)" fill="#ed78e0"/>
      </g>
      <g id="Group_184" data-name="Group 184" transform="translate(1.222 0)">
        <path id="Path_169" data-name="Path 169" d="M0,0S2.421,2.784,2.438.225c0,0,1.193,2.386,1.643-.018l.225,3.441S5.5,5.152,6.57,2.542c0,0-2.023,4.392.294,2.9,0,0,2.421,1.9,4.184.813,0,0-6.622.968-1.764,1.089,0,0-3.908.743-.986,1.78,0,0-2.317.052-.363.761,0,0,1.9,1.332,3.251,2.041,0,0,1.3,1.625,1.936.449,0,0,1.539,1.332,2.386-.241,0,0,1.8-.882.5-2.905,0,0,1.573-1.089.761-2.178,0,0,2.49,1.729.951,2.473,0,0,1.712,2.386-1.366,3.2a2.729,2.729,0,0,1-2.49,1.383s-3.043,1.711-3.337-1.176c0,0-2.317-3.994-5.706-3.7,0,0-2.023-.864-.069-1.711,0,0-.588-2.023-2.265-1.262C2.507,6.276,2.2,1.936,0,0Z" transform="translate(0 7.807)" fill="#d34db3"/>
        <path id="Path_170" data-name="Path 170" d="M9.181,5.3S11.186,2.481,8.3,1.392c0,0-2.611-2.611-4.15-.658,0,0-2.178-2.316-4.149,1.28,0,0,4.6-.156,2.559,3.389,0,0,.484,1.332,1.867-1.557,0,0,.052,1.072.986.086,0,0,2.49-1.78,3.458,1.5C8.852,5.472,9.233,6.042,9.181,5.3Z" transform="translate(1.677 0)" fill="#d34db3"/>
        <path id="Path_171" data-name="Path 171" d="M1.919,3.735s2.369.675,3.3-.553c0,0-1.85.433-.968-1.314,0,0-1.591-.64-.5-1.868L0,1.384S2.749,1.833,1.919,3.735Z" transform="translate(13.365 10.124)" fill="#d34db3"/>
        <path id="Path_172" data-name="Path 172" d="M0,5.377s3.493-1.21,3.838-3.908c0,0-1.158.674-1.366-1.469A4.976,4.976,0,0,1,0,5.377Z" transform="translate(11.031 7.133)" fill="#d34db3"/>
      </g>
      <g id="Group_185" data-name="Group 185" transform="translate(1.222 0.745)">
        <path id="Path_173" data-name="Path 173" d="M2.127,6.777S1.712,2.489,0,1.038c0,0,1.677.95,1.781,1.815,0,0,.415.726.674-.035,0,0,.173-2.144-.4-2.817,0,0,1.141,1.971.916,2.68,0,0,1.176.19.761-2.317,0,0,1.279,1.4-.1,5.291,0,0,.64.64,1.573-.951L8.368,2.61s-3.095.916-3.337,3.614c0,0,.553,2.489,2.351.588,0,0-.657,1.192,1.037.449a14.153,14.153,0,0,1,3.389.19s-4.288-.38-5.446,1.331A8.633,8.633,0,0,1,9.6,8.316s-3.268.191-3.51,1.176a5.924,5.924,0,0,1,4.841,2.87s.346,1.539,1.591,1.314c0,0-1.5.294-2.611-2.023,0,0-4.288-3.042-4.409-1.607a9.04,9.04,0,0,1,4.322,2.282S6.1,9.716,4.824,10.3c0,0-1.85-.139-1.089-1.4,0,0,1.089-1.66-.726-1.246C3.026,7.676,1.487,7.953,2.127,6.777Z" transform="translate(0 6.025)" fill="#a43d80"/>
        <path id="Path_174" data-name="Path 174" d="M.062.692s-.45,1.85,1.072,1.28c0,0,.986-.173,1.037-.744,0,0,1.055.916,1.279-.208L3.019.138S2,.692,1.653,0A1.7,1.7,0,0,1,.062.692Z" transform="translate(11.453 19.458)" fill="#a43d80"/>
        <path id="Path_175" data-name="Path 175" d="M0,4.72s1.539-1.383.5-2.9A1.522,1.522,0,0,0,1.4,0s.864,1.349,1.383,1.21A.845.845,0,0,1,1.66.881s-.328,1.661,1.919,2.56c0,0-1.815-.277-2.213-1.522,0,0,1.573,2.057.657,2.767A1.9,1.9,0,0,1,0,4.72Z" transform="translate(15.526 14.496)" fill="#a43d80"/>
        <path id="Path_176" data-name="Path 176" d="M1.435,3.389S2.282,2.4,0,1.384c0,0,3.268-.26,3.752-1.384L1.8,1.747S2.075,2.9,3.562,1.712a1.718,1.718,0,0,1-1.193.968,2.071,2.071,0,0,0,2.351.744C4.7,3.424,3.8,4.1,1.435,3.389Z" transform="translate(13.365 9.396)" fill="#a43d80"/>
        <path id="Path_177" data-name="Path 177" d="M.961,2.472S2.551,1.815.58.415c0,0,1.625,1.66.017,1.418C.6,1.833.131,1.3.528,0c0,0-1.245,1.66.086,2.23C.632,2.247.891,3.095.961,2.472Z" transform="translate(9.569 2.255)" fill="#a43d80"/>
        <path id="Path_178" data-name="Path 178" d="M1.041,2.611S-.653,2.006.281,0A3.02,3.02,0,0,0,.557,2.991,3.866,3.866,0,0,0,1.041,2.611Z" transform="translate(6.773 0.543)" fill="#a43d80"/>
        <path id="Path_179" data-name="Path 179" d="M0,.768A3.471,3.471,0,0,1,2.49.059S4.2.958,3.06,3.24L2.732,4.1s-.484-.225-.813.8C1.936,4.883,2.922,1.546,0,.768Z" transform="translate(2.594 0)" fill="#a43d80"/>
      </g>
      <g id="Group_186" data-name="Group 186" transform="translate(1.222 1.097)">
        <path id="Path_180" data-name="Path 180" d="M2.991,3.909S3.527.745,1.349,0A2,2,0,0,0,0,.4S2.611.209,2.438,2.682L1.867,4.774C1.85,4.792,2.87,3.131,2.991,3.909Z" transform="translate(2.611 0)" fill="#6d001b"/>
        <path id="Path_181" data-name="Path 181" d="M2.127,5.74S2.23,1.971,0,0A6.045,6.045,0,0,1,2.127,5.74Z" transform="translate(0 6.71)" fill="#6d001b"/>
        <path id="Path_182" data-name="Path 182" d="M.311,4.754S2.818,2.04,0,0C.017,0,3.527,1.659.311,4.754Z" transform="translate(12.38 5.69)" fill="#6d001b"/>
        <path id="Path_183" data-name="Path 183" d="M0,2.5S3.959-1.062,7.642.5A6.545,6.545,0,0,0,0,2.5Z" transform="translate(3.994 12.906)" fill="#6d001b"/>
        <path id="Path_184" data-name="Path 184" d="M0,6.622A11.045,11.045,0,0,0,.761,0S2.3,2.472,0,6.622Z" transform="translate(2.922 5.776)" fill="#6d001b"/>
        <path id="Path_185" data-name="Path 185" d="M0,.065S1.729-.419,3.821,2.693C3.821,2.676,2.109-.488,0,.065Z" transform="translate(6.916 15.67)" fill="#6d001b"/>
      </g>
    </g>
    <g id="Group_193" data-name="Group 193" transform="translate(65.927 24.057)">
      <path id="Path_186" data-name="Path 186" d="M3.792,38.676s-3.8-2.611-.035-6.346c0,0-7.279-1.9-1.573-9.682,0,0,2.887.415,2.559-4.444L4.034,7.571S5.417,4.926,8.892,6c0,0,1.539-3.008,5.913,1.279,0,0-1.5-5.843,1.366-5.757,0,0,4.962-4.271,7.867,1.5,0,0,3.268,1.3,2.23,6.069,0,0,6.933-.156,7.141,4.236,0,0,5.654,4.823,1.487,11.1l-3.908,5.792L25.283,40.837l-7.106,3.389L7.716,42.411C7.716,42.445,4.207,41.546,3.792,38.676Z" transform="translate(0 0)" fill="#f98cf1"/>
      <g id="Group_188" data-name="Group 188" transform="translate(1.225 3.042)">
        <path id="Path_187" data-name="Path 187" d="M.1,15.341s-.847,6.553,2.542,7.694c0,0,1.47-.138.83.709,0,0,.726,3.44,4.08,2.8,0,0,2.663,3.112,4.686-1.78,0,0,2.818-2.352,2.663-3.908,0,0,2.144,7.833,5.861,6.4,0,0,3.631,3.25,5.014-1.747,0,0,3.32-1.729,2.438-4.374,0,0,2.127-3.441.432-4.651,0,0,7.054-.26,6.985-2.974,0,0,3.389-2.265.605-4.668,0,0,2.715-4.443-1.107-6.259,0,0-3.579-3.6-6.086-2.3L18.98,3.826l.9,2.594s3.043.9-.674,1.642c-1.435.277-.657,2.473-.657,2.473a1.752,1.752,0,0,1-.346,2.438,2.181,2.181,0,0,1-2.421,2.558,23.453,23.453,0,0,1-3.527-2.212S9.868,10.95,9.747,9.255c0,0-3.372,9.129-8.005,5.948C1.725,15.168-.489,13.2.1,15.341Z" transform="translate(2.364 21.088)" fill="#ed78e0"/>
        <path id="Path_188" data-name="Path 188" d="M6.674,17.566s3.233-2.455,1.746-5.481c0,0-1.591-3.423-.571-6.38A24.8,24.8,0,0,1,6.674,2.212C6.726,1.8,5.239,0,5.239,0S6.5,5.429,4.1,3.475L.813,1.556S4.53,4.806.571,4.443c0,0,4.513,1.452.207,2.385,0,0,3.787,1.729-.761,3.164,0,0,3.008,1.193-.017,3.666,0,0,3.838-.83,2.836,1.937C2.818,15.612,7.867,11.981,6.674,17.566Z" transform="translate(2.999 15.232)" fill="#ed78e0"/>
        <path id="Path_189" data-name="Path 189" d="M9.146,20.886s-2.732-1.21-1.591-3.025c0,0-4.616-.674-3.389-3.51,0,0-1.643-2.75,2.576-7.469,0,0-4.893,6.1-2.611-.4,0,0-3.925,1.263,2.593-6.432,0,0-3.078,1.193-2.455-.052L2.611,1.3,0,8.041.519,13.59l2.4,4.357S7.262,23.462,9.146,20.886Z" transform="translate(9.275 14.35)" fill="#ed78e0"/>
        <path id="Path_190" data-name="Path 190" d="M2.421,12.57a10.052,10.052,0,0,0,.847-3.631s.173-2.9,1.677-4.253c0,0-2.507.778-.38-2.42,0,0-2.714,2.9-1.124-1.314,0,0-2.178,3.8-1.625-.138L.934,0S2.68,4.271.536,5.81A3.389,3.389,0,0,1,0,10.7S2.265,11.93,2.421,12.57Z" transform="translate(17.35 12.672)" fill="#ed78e0"/>
        <path id="Path_191" data-name="Path 191" d="M3.518,15.163s-4.7-2.3-3.233-5.688c0,0,.328-3.631,2.524-4.928l3.856,7.3L5,4.011s2.507,9.285,2.8,1.919c0,0,1.487,9.354,1.625,1.107,0,0,2.179,7.14,1.3-.312l-.259-1.833s2.265,8.835,1.366.225c0,0,.415-1.867,1.383-.138l.951,6.172a5.692,5.692,0,0,0,.726-5.325L14.652.985S15.5,7.625,15.932,1c0,0,.622,6.812,1.694,1.159,0,0,1.279,5.1,2.7.017,0,0-1.262,8.766,1.9,1.314L22.8,0S24.8,1.159,24.023,2.68L22.381,7.712s-.588-.4-.951.1c0,0-2.818-.45-3.475,2.092l-1.573,1.47-1.643,1.556-.9,2.784-2.645,2.818L8.463,13.625l-1.176.605C7.3,14.229,3.241,13.538,3.518,15.163Z" transform="translate(0 0)" fill="#ed78e0"/>
        <path id="Path_192" data-name="Path 192" d="M8.541,14.888l-4.72.363,4.651-4.08S4.962,14.715,7.4,9.58c0,0-5.567,3.32,1.331-3.631L4.668,8.577,6.691,5.309s-4.305,5.273-.363-1.435l-2.317,2.4s-1.228-.19.761-3.043L3.32,4.513A4.348,4.348,0,0,1,4.962.019s-3.078-.381-3.423,2.3c0,0,1.522,2.041-.328,3.147,0,0,2.334,3.578.864,5.982L0,13.919l.726,3.648C.743,17.567,7.8,16.322,8.541,14.888Z" transform="translate(21.897 6.655)" fill="#ed78e0"/>
      </g>
      <g id="Group_189" data-name="Group 189" transform="translate(1.947 5.843)">
        <path id="Path_193" data-name="Path 193" d="M2.976,13.66a3.7,3.7,0,0,1-2.023-3.8S-.966,7.452.642,5.74c0,0,1.694,3.787,7.936,1.021,0,0,2.386-3.769,1.383-6.761,0,0,1.971,3.856,2.991,3.907,0,0,3.268,6.571,1.591,9.319,0,0-.692,1.643-1.193-6.466,0,0-1.3-2.058-1.867,2.42,0,0-.432,6.95-2.766,7.5,0,0,1.867-1.746,1.971-7.729,0,0,1.47-3.527.8-4.754,0,0-.692,4.495-2.818,6.6,0,0-1,.276.64-2.023,0,0,1.573-4.115,1.8-5.152,0,0-1.677,3.475-3.475,4.616,0,0-4.979,2.645-6.172,1.055,0,0-.536,4.167,2.006,3.647,0,0-2.023-.743-1.124-2.385A4.419,4.419,0,0,0,7.057,9.1C7.039,9.1,6.123,13.141,2.976,13.66Z" transform="translate(1.203 27.093)" fill="#d34db3"/>
        <path id="Path_194" data-name="Path 194" d="M7.608,11.376s-.709-4.5-2.732.276A4.089,4.089,0,0,1,6.518,8.887c1.383-.778.156-.432.156-.432S1.245,12.189,0,11.774c0,0,5.239-2.2,6.363-3.925,0,0-2.4-1.573-6.345.26,0,0,3.389-2.109,5.913-1.314,0,0,.519-1.937-4.772-5.723,0,0,4.029,1.5,5.066,5.291,0,0,2.351-1.3-.657-6.362A7.716,7.716,0,0,1,7.487,6.1s.9,1.764.052,2.058C7.538,8.161,8.731,8.472,7.608,11.376Z" transform="translate(2.277 14.315)" fill="#d34db3"/>
        <path id="Path_195" data-name="Path 195" d="M10.178,15.251a34.738,34.738,0,0,1,2.282-6.8l.346-2.161s-1.193,1.884-1.331-.467c0,0-.553,3.995-1.971-.154,0,0-2.334-3.684-1.988-1.056,0,0,1.107,3.752-.277,2.213,0,0-1.228,1.314-1.764-.743,0,0-3.112-5.722-3.095-6.069S2.19,4.462.513,2.18L2.432,5.413.133,2.75s-.8,1.919,1.5,4.15L3.193,8.3A1.623,1.623,0,0,1,5.51,7.522S8.761,9.614,9.262,13.09C9.3,13.072,9.3,17.464,10.178,15.251Z" transform="translate(0 3.612)" fill="#d34db3"/>
        <path id="Path_196" data-name="Path 196" d="M.193,11.533s.536.708,1.435-.865A8.38,8.38,0,0,1,4.083,8.68s.64-2.213,2.006-2.921c0,0-1.331.155-.692-1.193L6.953,0S4.9,3.718,5.172,1.487L4.619,3.873,4.1.761s-.069,2.871-.916,1.332L3.409,5.17,2.527,3.061s.484,3.077-.709,2A5.679,5.679,0,0,1,.8,10.3C.832,10.3-.482,11.5.193,11.533Z" transform="translate(12.631 0)" fill="#d34db3"/>
        <path id="Path_197" data-name="Path 197" d="M.47,5.757s1.9-2.23,1.383-4.513c0,0,.086-1.176-.622-.691,0,0-.294.4-.086-.553,0,0-1.331.173-1.089.847A4.807,4.807,0,0,1,0,5.429S-.066,6.535.47,5.757Z" transform="translate(17.852 15.336)" fill="#d34db3"/>
        <path id="Path_198" data-name="Path 198" d="M.438,9.578S3.464,6.795,2.461,5.5c0,0,3.337-3.855,2.9-5.5,0,0,.761,2.75,1.5,1.038,0,0-1.764,3.994,0,2.333,0,0-2.974,5.585-.5,2.87l-2.68,2.11s5.6-2.577,7.4-2.473c0,0-5.481,1.867-5.567,2.4,0,0,.432,1.107,1.988.276,0,0,6.553-1.072,8.524-.639,0,0,1.107.985-.311.45,0,0-7.59-.45-10.374,1.331,0,0,4.685.674,7.659-.691,0,0,.657.4-1.85.9l-5.74.4s.45,1.625,1.9,1.055l6.553-.761s1.366.777-.173.726c0,0-6,.224-6.242,1.054-.259.847-.156.225-.156.225l4.565-.035s-.208.847-.64.761l-3.907-.208s-1.487,1.885.743,1.729l-2.542.432s-.19,1.989.709,1.47l-2.559-.086s-1.591.38-1.9-1.038c0,0-.45-1-1.107-.675,0,0-1.055-.864-.311-1.746C.386,13.192-.513,10.426.438,9.578Z" transform="translate(18.61 12.863)" fill="#d34db3"/>
        <path id="Path_199" data-name="Path 199" d="M0,.437S.778,2.425,1.158,3.826c0,0-.069-1.539,1.85.433L5,10.552s.363-.191-.156-1.729L3.6,4.88s.916-.1,1.643,2.041l1.712,4.651s.449.139,0-1.245L5.619,6.039s.5.138,1.279,1.349L8.61,11.4,7.193,6.7s.138-.674,1.522.778c0,0-.4-2.179,1.262.052,0,0,1.279,2.853,1.435.657,0,0-2.991-3.994-.588-3.164,0,0-1.556-2.7-.1-3.942,0,0-.069-1.625-.726-.882L8.783,2.7,7.314,4.448,5.308,4.378,3.078,2.857Z" transform="translate(15.607 31.878)" fill="#d34db3"/>
      </g>
      <g id="Group_190" data-name="Group 190" transform="translate(1.802 7.459)">
        <path id="Path_200" data-name="Path 200" d="M7.677,6.5s3.735,5.1,1.591,9.319a11.464,11.464,0,0,0-1.781-8.4s-1.124.865.64,3.51c0,0,.4,4.011-.968-.243,0,0-1.21-3.25-.951-3.907,0,0-.9,1.712,0,4.979A7,7,0,0,1,5.516,5.55S5.585,4.737,5,4.979c0,0,.294,4.046-3.354,5.325L0,10.478s4.6-.311,4.686-7.9L4.2,0s.726,3.907,1.677,4.392C5.879,4.409,6.466,6.968,7.677,6.5Z" transform="translate(6.623 22.884)" fill="#a43d80"/>
        <path id="Path_201" data-name="Path 201" d="M1.072,5.946S-.847,1.814.45,0A10.991,10.991,0,0,0,5.775,1.693,6.261,6.261,0,0,1,.588.414S-.657,2.7,1.487,3.2a1.9,1.9,0,0,0,.4,2.869C1.9,6.085,2.2,7.469,1.072,5.946Z" transform="translate(1.297 31.581)" fill="#a43d80"/>
        <path id="Path_202" data-name="Path 202" d="M3.7,6.847A3.933,3.933,0,0,1,4.046,4s-1.556-2.75-.5-4c0,0-1.4,2.109-1.055,2.542L0,3.562a16.436,16.436,0,0,1,2.265-.45A1.822,1.822,0,0,1,.692,4.79s1.21.519,1.677-1.124c0,0,.865,1.573.225,2.42C2.593,6.086,3.164,4.6,3.7,6.847Z" transform="translate(7.073 16.762)" fill="#a43d80"/>
        <path id="Path_203" data-name="Path 203" d="M2.9,10.132S2.2,6.795,1.089,5.723c0,0,1.591,1.625,1.487-.432L0,0S1.556.173,3.268,5.723c0,0,.5,1,1.245-.761L5.239,3.3a1.984,1.984,0,0,1-.415,1.729s-1.712,2.974-1.4,3.613A8.241,8.241,0,0,0,3.2,10.7Z" transform="translate(7.349 6.388)" fill="#a43d80"/>
        <path id="Path_204" data-name="Path 204" d="M5.689,4.875s-1.21-.9-2.317.778C3.373,5.653-.068,3.337,0,0,0,0,.71.052.727.985c0,0,.83,2.731,2.351,3.666,0,0,.778.588.864-.329C3.96,4.322,3.8,3.371,5.689,4.875Z" transform="translate(0 4.626)" fill="#a43d80"/>
        <path id="Path_205" data-name="Path 205" d="M0,9.328a10.077,10.077,0,0,0,1.383-5.9s.83-.622.571,3.043c0,0,.64.657,1.055-1.538L3.423.026s.8-.415.311,2.057L3.493,5.369s.553.38.934-3.251c0,0,.415-1.78,1.107-1.677,0,0-1.3,3.51-1.124,4.651a8.2,8.2,0,0,0-.778,1.972A6.766,6.766,0,0,0,.761,9.587C.744,9.6,1.072,8,0,9.328Z" transform="translate(13.245 0)" fill="#a43d80"/>
        <path id="Path_206" data-name="Path 206" d="M0,.333s3.026,2.68,2.784,4.149c0,0,1.487-1.452,2.023,1.384l1,2.23s.761.622.035-.847c0,0-1.228-2.991.225-1.937l2.2,5.411s.5.761.415-.6c0,0-2.265-4.963-2.334-5.118-.052-.156,2.334,2.523.744.189,0,0-.38-1.123,1.055-.035,0,0,2.438,1.729,2.421,2.628,0,0,.951.121-1.487-2.421,0,0-1.331-1.452-.086-1.3,0,0,2.109.311,2.23.934,0,0,.328-.312-.4-.917A2.048,2.048,0,0,1,10.668.61S10.46-.912,9.3.852c0,0-.605,1.262-1.124,1,0,0,.1,1.193-.484,1.176a1.04,1.04,0,0,1-1.4.449A2.163,2.163,0,0,1,3.285,2.114C3.32,2.132,2.438,2.84,0,.333Z" transform="translate(15.752 30.365)" fill="#a43d80"/>
        <path id="Path_207" data-name="Path 207" d="M1.194,1.3s2.23-.5,3.268.207c0,0-1.435-.812-.259-1.5L0,.38C-.017.38.329,1.435,1.194,1.3Z" transform="translate(20.575 26.463)" fill="#a43d80"/>
        <path id="Path_208" data-name="Path 208" d="M1.729,6.794s5.948-1.4,7.85-.744c0,0-3.977-.64-1.21-1.607,0,0-2.369-.346.934-.9l3.3-.554-6.587.45s-1.47-1.176,1.141-1.66c0,0-3.441.449-.778-1.781L1.625,2.074s-1,1.106-.449,2.11L0,5.031S1.141,7,1.642,6.535Z" transform="translate(17.723 19.374)" fill="#a43d80"/>
        <path id="Path_209" data-name="Path 209" d="M0,5.567A8.849,8.849,0,0,0,4.72.674S2.939,3.631,2.334,3.631c0,0-1.193.57.294-1.262,0,0,1.02-1.781.5-2.369A6.351,6.351,0,0,1,.1,4.72.572.572,0,0,1,0,5.567Z" transform="translate(18.812 16.071)" fill="#a43d80"/>
        <path id="Path_210" data-name="Path 210" d="M0,4.322S1.971,2.005,1.349,0c0,0,.034,1.642-.45.311A5.233,5.233,0,0,1,0,4.322Z" transform="translate(18 14.827)" fill="#a43d80"/>
      </g>
      <g id="Group_191" data-name="Group 191" transform="translate(9.67 8.488)">
        <path id="Path_211" data-name="Path 211" d="M.813,3.164A1.662,1.662,0,0,0,0,1.625,1.551,1.551,0,0,0,.467,0S1.28,1.539.64,1.573C.64,1.573,1.4,2.663.813,3.164Z" transform="translate(1.573 17.773)" fill="#6d001b"/>
        <path id="Path_212" data-name="Path 212" d="M2.386,9.786a6.882,6.882,0,0,0-1.5-4.443A14,14,0,0,1,2.4,7.85,15.134,15.134,0,0,0,0,0S2.092,2.61,2.715,8.109A10.926,10.926,0,0,1,4.305,4.667s-2.04,4.323-1.573,5.377C2.749,10.028,2.766,10.823,2.386,9.786Z" transform="translate(0 5.706)" fill="#6d001b"/>
        <path id="Path_213" data-name="Path 213" d="M.773,8.576s1.452-2.057,2.87-2.524A5.287,5.287,0,0,1,5.649,3.129s-.951.692-1.21.951c0,0,.225-3.337.847-4.081,0,0-.778.761-1.124,4.461,0,0-.813,1.763-1.02.483l.346-3.457L2.952,5.412S1.5,7.815,1.707,5.62L1.6,2.991l-.657,4.5s-1.072.155-.934.829C.03,8.3,1.24,7.02.773,8.576Z" transform="translate(5.348 0)" fill="#6d001b"/>
        <path id="Path_214" data-name="Path 214" d="M.467.845s.605,3.25,1.9,4.028c0,0-.156,1.193.8,1.435,0,0,1.9,2.438,1.573,4.927A8.961,8.961,0,0,0,3.078,6.62s-.605-.277-.64-.674a7.339,7.339,0,0,0,.9,4.547S1.712,7.674,2.162,5.461c0,0-.19-.743-.588-.208a17.092,17.092,0,0,0-.052,5.395S.19,6.982,1.712,4.735c0,0-.934-2.023-1.262-.537,0,0,.1,1.367-.329,1.764A5.54,5.54,0,0,0,.26,3.577,6.437,6.437,0,0,0,.139.862C.173.879-.363-1.075.467.845Z" transform="translate(3.077 22.307)" fill="#6d001b"/>
        <path id="Path_215" data-name="Path 215" d="M0,0S5.327,4.46,6.451,3.319c0,0,3.008,1.816,3.544,3.285A10.314,10.314,0,0,0,6.607,3.63s-.363-.346-.553.035a15.854,15.854,0,0,0,1.47,2.057S5.915,4.063,5.932,3.786c0,0-.5.312-.709-.086a18.429,18.429,0,0,1,3.008,6.726S6.71,5.256,4.774,3.6c0,0-.45-.346-.225.692l.5,1.521s-.934-1.66-.761-2.438c0,0-1.815-1.78-1.591-.034,0,0-.415-.761.156-.986C2.82,2.333-.085.311,0,0Z" transform="translate(8.124 29.773)" fill="#6d001b"/>
        <path id="Path_216" data-name="Path 216" d="M1.07,3.406s5.187-1.642,7.158-1.09a19.317,19.317,0,0,0-6.968.813s-.294-.449.813-.778a29.564,29.564,0,0,1,8.074-.985S4.493.934.724,2.3c0,0-1.055-.726.847-1.245L5.461,0,.586,1.072s-.968.64-.415,1.089C.188,2.144.05,3.354,1.07,3.406Z" transform="translate(10.411 21.491)" fill="#6d001b"/>
        <path id="Path_217" data-name="Path 217" d="M.3,4.08S2.681,2.558,3.165.657c0,0-1.487,2.507-2.369,2.68,0,0,2.265-2.179,1.885-3.337A6.27,6.27,0,0,1,.122,3.717C.139,3.717-.258,4.478.3,4.08Z" transform="translate(11.185 16.079)" fill="#6d001b"/>
      </g>
      <g id="Group_192" data-name="Group 192" transform="translate(14.923 26.417)">
        <path id="Path_218" data-name="Path 218" d="M4.862,6.208S3.306,4.375,2.32,5.1c0,0-.173-.76-1.02-.328,0,0-2.092-.588-.968-1.678,0,0,1.366-1.193,1.435-1.781A2.2,2.2,0,0,0,3.634,0S5.934.691,5.8,2.23c0,0,.9,1.435-.052,2.386C5.761,4.616,5.467,6.813,4.862,6.208Z" fill="#ff4502"/>
        <path id="Path_219" data-name="Path 219" d="M0,1.712A1.3,1.3,0,0,0,.346,0C.363-.017,1.176.831,0,1.712Z" transform="translate(5.104 3.631)" fill="#dd4414"/>
        <path id="Path_220" data-name="Path 220" d="M.968,2.456A2.007,2.007,0,0,0,0,0C-.017,0,2.006.848.968,2.456Z" transform="translate(4.481 0.778)" fill="#dd4414"/>
        <path id="Path_221" data-name="Path 221" d="M0,2.4S1.919,1.78.277,0C.277,0,1.539,1.521,0,2.4Z" transform="translate(4.827 2.145)" fill="#dd4414"/>
        <path id="Path_222" data-name="Path 222" d="M.778,2.593S1.85,1.383,0,0C0,0,1.487,1.348.778,2.593Z" transform="translate(3.945 2.975)" fill="#dd4414"/>
        <path id="Path_223" data-name="Path 223" d="M.121,2.3S1.418,1.47,0,0C0,0,1.107,1.557.121,2.3Z" transform="translate(4.239 0.571)" fill="#dd4414"/>
        <path id="Path_224" data-name="Path 224" d="M0,1.85S1.66,1.573.294,0C.294,0,1.158,1.4,0,1.85Z" transform="translate(3.496 1.781)" fill="#dd4414"/>
        <path id="Path_225" data-name="Path 225" d="M1.781,1.718S2.213-.045,0,.006C0,.006,2.524-.2,1.781,1.718Z" transform="translate(1.456 2.812)" fill="#dd4414"/>
        <path id="Path_226" data-name="Path 226" d="M0,1.176S2.576,1.435,1.677,0C1.66-.018,2.023,1.262,0,1.176Z" transform="translate(1.611 1.436)" fill="#dd4414"/>
        <path id="Path_227" data-name="Path 227" d="M0,1.937S1.694,1.574.571,0A1.258,1.258,0,0,1,0,1.937Z" transform="translate(1.335 2.161)" fill="#dd4414"/>
        <path id="Path_228" data-name="Path 228" d="M2.645,1.152A2.028,2.028,0,0,0,0,.167,2.843,2.843,0,0,1,2.645,1.152Z" transform="translate(1.801 3.948)" fill="#dd4414"/>
        <path id="Path_229" data-name="Path 229" d="M.364,1.99S1.28,1.108.433.365.243.244.243.244,1.125,1.4.156,1.869C.156,1.852.035,2.457.364,1.99Z" transform="translate(0.729 2.264)" fill="#dd4414"/>
        <path id="Path_230" data-name="Path 230" d="M0,1.21S1.487,1.366,1.452,0A1.508,1.508,0,0,1,0,1.21Z" transform="translate(2.787 0.571)" fill="#dd4414"/>
      </g>
    </g>
    <g id="Group_198" data-name="Group 198" transform="translate(10.632 21.099)">
      <path id="Path_231" data-name="Path 231" d="M13.5,8.23s2.023-2.126.519-3.32L11.6,2.352,8.178,0,4.115.657S.294.467.553,4.185L0,7.055,1.5,9.908l3.458,1.78a2.206,2.206,0,0,1,1.867-.4,3.2,3.2,0,0,1,2.991-.777S12.656,9.475,13.5,8.23Z" transform="translate(3.62 3.752)" fill="#f98cf1"/>
      <g id="Group_194" data-name="Group 194">
        <path id="Path_232" data-name="Path 232" d="M8.1,8.759s-4.5.933-5.706.432c0,0-2.421-1.071-1.3-2.835,0,0-2.334-.916-.19-2.939,0,0-.242-3.872,2.49-3.371A1.449,1.449,0,0,1,4.969,1.583s-.778,1.452-.588,1.781A3.8,3.8,0,0,0,6.076,5.94s2.127,1.244,1.85,1.8c0,0,1.331-.276,1.522.778C9.447,8.517,9.62,9.346,8.1,8.759Z" transform="translate(0 6.872)" fill="#ed78e0"/>
        <path id="Path_233" data-name="Path 233" d="M3.406,8.2A1.042,1.042,0,0,1,3.2,6.83S3.769,6,2.109,4.322L0,1.4s.726.674.709-.225L2.853,3.77s1.02,1.037.415-.467L1.8,0S3.043,1.643,3.043.242l1.21,3.7L4.132.588s.5,3.6,1.867.8L5.515,5.17s.83,1.227,1.539-.449l.916-1.332s.605,1.5,1.677-.035c0,0,.467-1.591,1.539-1.124,0,0,1.366-.19-2.472,4.392,0,0-1.331-.26-1.573.553L5.758,6.587,4.6,6.484C4.565,6.484,3.786,8.957,3.406,8.2Z" transform="translate(6.802 7.435)" fill="#ed78e0"/>
        <path id="Path_234" data-name="Path 234" d="M7.438,11.308s.8-1.539,1.729-1.746c0,0,2.663-.225,3.527-1.729,0,0,2.317-1.712-1.072-3.874,0,0-1.418-.847-2.092-.19,0,0-1,.45-.432-.622A3.145,3.145,0,0,0,7.9,0,1.519,1.519,0,0,0,6.59,1.021s-2.075-.864-2.7.052c0,0-2.386-1.3-3.856,1.815,0,0-.242,2.732.5,2.663L2.2,4.634l2.023-.207,2.109.311.156,1.591s-.052,1.971,1.5-.294L9.063,6.6C9.046,6.588,6.954,10.426,7.438,11.308Z" transform="translate(6.159)" fill="#ed78e0"/>
      </g>
      <g id="Group_195" data-name="Group 195" transform="translate(0.651 1.323)">
        <path id="Path_235" data-name="Path 235" d="M6.674,7.158l3.856-4.79s-.657-.57-1,.173L7.4,5.636l-.692-.069.968-1.417-.657.189L5.585,6.431s-1.124.346-.968-1.158l.674-4.063a10.694,10.694,0,0,0-.986,3.856L3.406.415a33.786,33.786,0,0,0,.847,5.118L1.331,0S3.3,5.376,3.977,5.913C3.977,5.913,2.7,5.446,0,1a40.1,40.1,0,0,0,2.9,4.65S3.527,7.8,2.559,7.624l.4.571s.588-2.283,2.127-1.055c0,0,.9-.294.605.414C5.723,7.538,6.224,8.4,6.674,7.158Z" transform="translate(6.807 6.302)" fill="#d34db3"/>
        <path id="Path_236" data-name="Path 236" d="M7.776,8.347s-4.513.726-5.031-.052a1.145,1.145,0,0,1-.467-2.006S.5,5.943,1.344,4.7c0,0-2.49-2.766-.692-3.631,0,0,1.055-2,2.628-.519l1.037.674s-1.331.45-.4,2.11c0,0,.017,3.527,2.645,4.27C6.565,7.6,8.709,7.516,7.776,8.347Z" transform="translate(0 5.908)" fill="#d34db3"/>
        <path id="Path_237" data-name="Path 237" d="M3.764,4.263S5.493,2.517,5.355,1.946c0,0-1.279-1.5-2.369-1.054,0,0-1.833-1.66-2.784-.45A1.783,1.783,0,0,0,.479,2.517a4.591,4.591,0,0,1-.363,2.9s.536.691,1.5-.5C1.655,4.92,3.28,5.145,3.764,4.263Z" transform="translate(13.21 3.076)" fill="#d34db3"/>
        <path id="Path_238" data-name="Path 238" d="M6.407,5.161S8.551,1.322,8.205.2A1.105,1.105,0,0,0,6.649,1.322S5.4-.631,4.125.51c0,0-3.25-1.521-3.8.691A2.442,2.442,0,0,0,.6,4.054s1.487-1.417,2.49-1.176C3.1,2.9,6.494,2.827,6.407,5.161Z" transform="translate(5.812 0)" fill="#d34db3"/>
      </g>
      <g id="Group_196" data-name="Group 196" transform="translate(1.466 1.58)">
        <path id="Path_239" data-name="Path 239" d="M2.414,6.752S4,7.15,3.5,5.888c-.5-1.28-.329-.225-.329-.225a2.706,2.706,0,0,0-.968-2.126S-.093,2.9.045,1.618c0,0-.553-2.162,2.213-1.488h.83s-.536,2.334.294,2.524a3.328,3.328,0,0,0,.484,1.989,4.571,4.571,0,0,0,1.9,2.108C5.751,6.752,5.44,7.894,2.414,6.752Z" transform="translate(0 6.502)" fill="#a43d80"/>
        <path id="Path_240" data-name="Path 240" d="M.5,1.764,1.712,0,.605.537,0,1.417S0,2.472.5,1.764Z" transform="translate(11.681 11.682)" fill="#a43d80"/>
        <path id="Path_241" data-name="Path 241" d="M2.057,2.939,1.643,0S1.781,2.04.882,1.107c0,0-.432,1.175-.882-.035l.9,2.37A.931.931,0,0,1,2.057,2.939Z" transform="translate(8.69 9.987)" fill="#a43d80"/>
        <path id="Path_242" data-name="Path 242" d="M.635,4.6S2.468,2.858,3.626,3.5A1.771,1.771,0,0,0,2.519.559S1.309-.271.652.092L.116.87S.981,3.5.047,4.224C.047,4.19-.247,5.867.635,4.6Z" transform="translate(12.551 3.602)" fill="#a43d80"/>
        <path id="Path_243" data-name="Path 243" d="M5.775,5.163S8.109,1.982,7.538.529c0,0-1.176,3.319-1.608,1.816,0,0-1.5-2.473-2.611-.9,0,0-1.037-2.888-3.32-.5l.086,3.13s1.988-.813,2.386-.38C2.438,3.694,4.893,2.051,5.775,5.163Z" transform="translate(5.353 0)" fill="#a43d80"/>
      </g>
      <g id="Group_197" data-name="Group 197" transform="translate(1.685 1.778)">
        <path id="Path_244" data-name="Path 244" d="M5.394,3.32S2.23,1.8,2.075,0c0,0,.121,1.711.553,1.919,0,0,2.2,1.417,1.072,1.383L0,3.025S4.271,4.011,5.394,3.32Z" transform="translate(1.192 9.962)" fill="#6d001b"/>
        <path id="Path_245" data-name="Path 245" d="M2.714,3.076S2.143,1.313,2.8.465C2.8.465,1.089-.468.639.31c0,0-1.366,1.3-.1,1.919C.535,2.229,2.23,4.114,2.714,3.076Z" transform="translate(0 6.505)" fill="#6d001b"/>
        <path id="Path_246" data-name="Path 246" d="M3.043,2.84,3.008.626S1.193-.86,0,.748C0,.748.674,3.082.277,3.6A4.713,4.713,0,0,1,3.043,2.84Z" transform="translate(5.1 0)" fill="#6d001b"/>
        <path id="Path_247" data-name="Path 247" d="M1.85,4.634S1.556,2.577,0,2.715c0,0,.761-.622,2.006.968A5.18,5.18,0,0,0,3.6,0S3.717,3.078,1.85,4.634Z" transform="translate(9.059 0.332)" fill="#6d001b"/>
        <path id="Path_248" data-name="Path 248" d="M.516,4.66S1.432,2.619,2.591,2.93c0,0,1.349-.777,1.245-1.815,0,0-.865.294-.519-.674,0,0-.934-.07-.83,1.21A1.586,1.586,0,0,1,2.712.025S1.778-.147,1.4.407c0,0-.709-.4-.657.362,0,0,.294,2.559-.553,3.354C.2,4.124-.418,5.074.516,4.66Z" transform="translate(12.122 3.937)" fill="#6d001b"/>
      </g>
    </g>
    <g id="Group_204" data-name="Group 204" transform="translate(44.357 0)">
      <g id="Group_199" data-name="Group 199" transform="translate(0.409 8.24)">
        <path id="Path_249" data-name="Path 249" d="M5.514,6.73a1.558,1.558,0,0,0-.346-2.074c-1.107-.951-.138-.312-.138-.312s2.282-1.781-.709-3.078c0,0,0-.744-1.02-.813S2.835.265,2.835.265.587-.721.016,1.111c0,0-.242,3.942,1.141,3.994C1.157,5.123,1.227,8.166,5.514,6.73Z" transform="translate(15.047 6.146)" fill="#f98cf1"/>
        <path id="Path_250" data-name="Path 250" d="M.021,1.517S-.308-.662,1.646.2c1.971.847.882,2.058.882,2.058L1.7,4.076C1.715,4.058-.187,2.728.021,1.517Z" transform="translate(0 0)" fill="#f98cf1"/>
      </g>
      <g id="Group_200" data-name="Group 200" transform="translate(0 0)">
        <path id="Path_251" data-name="Path 251" d="M1.467,7.668S-.625,4.331.187,3.069c0,0,.882.1,1.262,1.8l.173.363S1.121-.58,2.988.7l.294.208S3.766-.6,5.029.268c0,0,2.3,1.608,1.764,5.395,0,0-.726.242-.968,0,0,0-.571,1.5-1.107.743,0,0-.8-.778-1.02.259A6.821,6.821,0,0,1,1.467,7.668Z" transform="translate(0 6.014)" fill="#ed78e0"/>
        <path id="Path_252" data-name="Path 252" d="M3.441,6.852s3.337-3.77,3.527-4.5c0,0-.449-4.115-4.979-1.47L0,2.7,1.435,3.861,2.9,5.192A1.014,1.014,0,0,1,3.441,6.852Z" transform="translate(14.002 0)" fill="#ed78e0"/>
        <path id="Path_253" data-name="Path 253" d="M6.829,5.773S6.466,4.3,5,5.375c0,0-1.971-.122-.83-1.781,0,0-1.608-1.435-2.766.173L2.438,1.848S2.438.5,1.885.759c0,0,.38-1.193-.536-.587L0,2.8a2.96,2.96,0,0,0,.311.951A2.277,2.277,0,0,1,.588,4.891c-.035.276.761.294.761.294l1.746.933.467.329Z" transform="translate(14.14 15.343)" fill="#ed78e0"/>
        <path id="Path_254" data-name="Path 254" d="M4.478,1.753S4.029.042,2.628.267c0,0-.916-.8-2.628.362,0,0,1.314.433.934.813,0,0,1.936.727.847,1.867,0,0-1.919,2.628.363,1.435C2.144,4.744,4.979,3.776,4.478,1.753Z" transform="translate(19.154 14.539)" fill="#ed78e0"/>
      </g>
      <g id="Group_201" data-name="Group 201" transform="translate(0.399 0.831)">
        <path id="Path_255" data-name="Path 255" d="M1.068,4.886S-.212,1.567.03.961A1.736,1.736,0,0,1,.67,2.086s.83,1.711.864,1.02C1.656.806,1.742.27,1.742.27s.311-.692.864.139L3.592,3.4S3.4,4.783,2.728,4.662c0,0-.311.449-.674-.121C2.053,4.541,1.275,5.474,1.068,4.886Z" transform="translate(0 7.964)" fill="#d34db3"/>
        <path id="Path_256" data-name="Path 256" d="M1.285,2.731.715,0S-.409.051.162.8L.749,2.939S.888,3.458,1.285,2.731Z" transform="translate(4.451 7.665)" fill="#d34db3"/>
        <path id="Path_257" data-name="Path 257" d="M1.03,3.3S-.25.64.165,0C.165.017-.561,1.038,1.03,3.3Z" transform="translate(3.219 6.644)" fill="#d34db3"/>
        <path id="Path_258" data-name="Path 258" d="M6.812,5.607l-3.821.778s-.19-.83-1.47-1.021c0,0-.674-.276-.847-.138L.5,5.365S.813,3.774.311,3.584A3.294,3.294,0,0,0,0,2.634S1.279.939,1.089.04c0,0,.674-.19.363.259,0,0-.536,2.007.588.779L.657,3.1s.017,2.2.692,1.193l.986-.052S1.781,6,2.957,5.383a1.014,1.014,0,0,0,1.815.19Z" transform="translate(13.759 14.678)" fill="#d34db3"/>
        <path id="Path_259" data-name="Path 259" d="M.986,4.09S3.51,2.464,3.32,1.082a1.18,1.18,0,0,0-1.331.328S2.04-.475,0,.114c0,0,1.781,1.106,1.279,1.867C1.279,2-1.193,4.92.986,4.09Z" transform="translate(19.914 14.363)" fill="#d34db3"/>
        <path id="Path_260" data-name="Path 260" d="M4.115,5.814s3.06-1.85,2.593-3.787c0,0-.726-1.089-1.383-.518,0,0-2.213-2.213-3.285-1.279A3.071,3.071,0,0,0,0,2.875l1.556-.588L2.04,4.379S4.2,4.5,3.6,5.78C3.6,5.78,3.786,6.3,4.115,5.814Z" transform="translate(13.188 0)" fill="#d34db3"/>
      </g>
      <g id="Group_202" data-name="Group 202" transform="translate(1.069 1.028)">
        <path id="Path_261" data-name="Path 261" d="M.4,4.173,0,2.547s.951,1.47,1.037.709l.052-1.5S.726-.235,1.729.023l.553,3.614s-.536.777-.9.19C1.383,3.827,1,4.64.4,4.173Z" transform="translate(0 8.48)" fill="#a43d80"/>
        <path id="Path_262" data-name="Path 262" d="M3.6,5.582S6.277,4.51,5.344,3.041l-.951-.277a2.615,2.615,0,0,0,.968-2.2S3.718-.988,1.886,1.052c0,0-1.936.19-1.885,1.626,0,0,.4.293.692.1a1.718,1.718,0,0,1,.588,1.66s.813,1.02,1.158.346C2.456,4.8,3.909,4.337,3.6,5.582Z" transform="translate(12.517 0)" fill="#a43d80"/>
        <path id="Path_263" data-name="Path 263" d="M.69,1.466A8.718,8.718,0,0,1,2.505.325S1.606-.557.431.584C.431.6-.693,2.037.69,1.466Z" transform="translate(12.883 18.379)" fill="#a43d80"/>
        <path id="Path_264" data-name="Path 264" d="M.069,3.113A9.6,9.6,0,0,0,1.8.33S.778,1.09,1.314,0L0,2.8Z" transform="translate(13.123 15.091)" fill="#a43d80"/>
        <path id="Path_265" data-name="Path 265" d="M.83,3.743S3.008,1.617,1.452.269C1.452.269.5-.389,0,.354c0,0,.467.813.934.155,0,0,1.694.675.1,2.456C1.02,2.966-.121,4.228.83,3.743Z" transform="translate(18.742 14.27)" fill="#a43d80"/>
      </g>
      <g id="Group_203" data-name="Group 203" transform="translate(2.151 2.097)">
        <path id="Path_266" data-name="Path 266" d="M1.2,3.614.647,0,.612,3.216.007,1.729S-.166,4.185,1.2,3.614Z" transform="translate(0 7.435)" fill="#6d001b"/>
        <path id="Path_267" data-name="Path 267" d="M.363,1.59s1.85-.017,2.49-.778C2.853.812.087,2.161.709,0,.709-.018-.622,1.124.363,1.59Z" transform="translate(12.957 2.197)" fill="#6d001b"/>
        <path id="Path_268" data-name="Path 268" d="M.256,1.73A5.167,5.167,0,0,0,1.449,0S-.73.658.256,1.73Z" transform="translate(11.871 0)" fill="#6d001b"/>
        <path id="Path_269" data-name="Path 269" d="M0,3.129,1.383,0C1.383.017.916,2.42,0,3.129Z" transform="translate(12.058 13.695)" fill="#6d001b"/>
        <path id="Path_270" data-name="Path 270" d="M0,3.164S2.87,1.02.761,0C.743.017,2.127,1.158,0,3.164Z" transform="translate(18.352 13.47)" fill="#6d001b"/>
        <path id="Path_271" data-name="Path 271" d="M.013,1.158,1.776,0C1.794,0-.177.173.013,1.158Z" transform="translate(12.218 17.446)" fill="#6d001b"/>
      </g>
    </g>
    <g id="Group_208" data-name="Group 208" transform="translate(4.518 43.516)">
      <path id="Path_272" data-name="Path 272" d="M8.887,11.09S.571,15.085,3.1,9.085c0,0-5.325-2.835-2.006-6.414A3.9,3.9,0,0,1,5,1.823S4.772-1.427,8.455.751l2.7,5.671s1.193,1.038-.328,1.21c0,0-1.245,1.123-.536,1.417C10.288,9.085,13.141,10.123,8.887,11.09Z" fill="#bef4f0"/>
      <g id="Group_205" data-name="Group 205" transform="translate(0.372 0.751)">
        <path id="Path_273" data-name="Path 273" d="M6.639,10.1s-2.87,1.8-5.394,1.211c0,0,3.095-.466,3.648-1.4A30.125,30.125,0,0,1,0,9.717s6.639-.38,2.282-1.106A3.366,3.366,0,0,1,5.913,7.088S1.314,3.735,2.23,2.334A3.213,3.213,0,0,1,5.394,4.046S3.095.761,5.083,0A7.066,7.066,0,0,1,7.348,6.293s-2.559.536-.432,1.47c0,0,2.023-1.038,0,.553C6.916,8.334,8.541,9.233,6.639,10.1Z" transform="translate(3)" fill="#a6dfd3"/>
        <path id="Path_274" data-name="Path 274" d="M2.274,4.478S-2.464,3.89,1.738,0C1.755.018.51,3.44,2.274,4.478Z" transform="translate(0 1.591)" fill="#a6dfd3"/>
        <path id="Path_275" data-name="Path 275" d="M5.014,1.292S1.66-1.354,0,.928A4.656,4.656,0,0,1,5.014,1.292Z" transform="translate(1.755 0.68)" fill="#a6dfd3"/>
        <path id="Path_276" data-name="Path 276" d="M2.957,2.023S0,2.542,0,0C.017,0,1,2.283,2.957,2.023Z" transform="translate(2.326 6.604)" fill="#a6dfd3"/>
      </g>
      <g id="Group_206" data-name="Group 206" transform="translate(1.942 0.768)">
        <path id="Path_277" data-name="Path 277" d="M.773,5a2.253,2.253,0,0,1,0-2.542A2.079,2.079,0,0,1,.185,0S.651,1.8,1.827,2.265C1.827,2.265.565,4.288.773,5Z" transform="translate(0 1.591)" fill="#558994"/>
        <path id="Path_278" data-name="Path 278" d="M6.795.848S2.369,1.713,0,.728A1.848,1.848,0,0,1,1.677.5S5.533.8,6.086,0C6.069-.016,7.348.26,6.795.848Z" transform="translate(2.277 7.779)" fill="#558994"/>
        <path id="Path_279" data-name="Path 279" d="M4.492,6.9S4.371,1.954,2.141,0a2.769,2.769,0,0,0,.277,2.836s1.435,2.369.035,1.21c0,0-3.458-1.711-2.161-.035C.291,4.011,3.939,7.521,4.492,6.9Z" transform="translate(4.389 0)" fill="#558994"/>
      </g>
      <g id="Group_207" data-name="Group 207" transform="translate(2.118 2.342)">
        <path id="Path_280" data-name="Path 280" d="M3.406,3.838S3.268.934,2.386,0c0,0,.778,2.7.4,2.922,0,0-.38.484-.743-.242L0,1.5,2.645,3.648S3.043,4.564,3.406,3.838Z" transform="translate(5.213 0.882)" fill="#42787f"/>
        <path id="Path_281" data-name="Path 281" d="M4.634.329S1.85,1.228,0,.623C0,.623,4.824.363,4.858,0,4.858,0,5.844.329,4.634.329Z" transform="translate(3.536 6.415)" fill="#42787f"/>
        <path id="Path_282" data-name="Path 282" d="M.528,4.478s.225-1.8,1.124-2.213c0,0-1.746-1.141-1.643-2.265,0,0-.19,1,1.193,2.334C1.2,2.352.147,3.786.528,4.478Z" transform="translate(0 0)" fill="#42787f"/>
      </g>
    </g>
    <g id="Group_210" data-name="Group 210" transform="translate(22.196 68.659)">
      <path id="Path_283" data-name="Path 283" d="M7.065,15.893s-2.957,1.677-5.654-1.9c0,0-2.645-.778-.692-2.455,0,0-2.4-3.164,5.533-3.822,0,0-4.15-2.922-.605-5.359,0,0,1.764-3.821,4.928-1.729a7.244,7.244,0,0,1,3.51,4.184A2.909,2.909,0,0,1,17.94,3.323s2.109-.881,2.715,1.02c0,0,3.216-.052,1.21,3.13a8.643,8.643,0,0,1-4.115,3.51s8.835-2.283,3.562,6.207c0,0,.605,4.2-5.723.57,0,0-1.66,5.516-5.083,4.133C10.488,21.893,4.108,22.688,7.065,15.893Z" fill="#a6dfd3"/>
      <path id="Path_284" data-name="Path 284" d="M9.8,5.083S9.33,1.106,8.189.571l.864,4.011s-.64.709-1.418-.985L6.944.934a8.686,8.686,0,0,0,.4,2.974s-.813,1.539-1.349-1.59L4.99,0A6.216,6.216,0,0,0,6.633,4.807,2.256,2.256,0,0,1,4.662,2.714S3.987,4.253,5.941,5.273c0,0-4.271.329-3.752-4.53,0,0-2.939.8,1.556,5.447,0,0,3.147.83,1.107,1.556,0,0,2.7-.069.328.813l-4.928.83s-1.228,1.436,1.729.779c0,0,3.493-1.539,1.833.172,0,0,2.057.052.225,1.556,0,0,.864.433,1.833-1.5L7.03,9.215,4.264,13.728s3.717-2.489,2.2.052c0,0,4.409-1.764,2.455,1.106,0,0,1.176-2.87,1.366-1.055.207,1.815.415.208.415.208l-.5-3.458,2.2,3.717s-2.351-4.028.657-.968c0,0-3.008-3.527,1.228-1.781,0,0,1.919.519.38-.553,0,0-3.026-1.625.38-1.384,0,0-1.936-1.3.277-1.625,0,0-2.818-.139-.035-1.816,0,0-3.579.5-1.089-2.4,0,0-.571-1.366-1.47-.432Z" transform="translate(3.441 2.546)" fill="#558994"/>
      <path id="Path_285" data-name="Path 285" d="M12.574,4.928s.778-2.057.415-2.853A1.441,1.441,0,0,1,14.908.951s.847.8,1.487.035L17.242,0s.951.277.259,1.366c0,0-3.2,3.112-3.458,3.907,0,0-.813,1.383.1.985,0,0,3.181.173,4.807-1.573,0,0-.277,1.5-4.513,2.074,0,0-.882.986.674.986a9.647,9.647,0,0,1,2.9-.5,6.836,6.836,0,0,1,1.833.224l.743.4a4.228,4.228,0,0,0-2.559-.294s-3.078.155-3.337.692c0,0,.622,1.21,1.5.484,0,0-1.055,1.124-1.988-.813a2.485,2.485,0,0,0,1.279,2.87s2.4,2.266,5.083,1.885c0,0,.588.4-.38.553a10.936,10.936,0,0,1-6.224-3.458s.83,2.092.622,2.334c0,0-.813-3.13-1.366-3.441,0,0-.8-.173-.553.657a9.538,9.538,0,0,1,.432,5.931s-.8-.657-.121-2.144c0,0-.173-3.735-.83-3.32l.173,2.283s-.346-.1-.484-2.438a2.125,2.125,0,0,0-.916,1.8s-1.867,3.112-1.746,5.065c0,0-.778-.692.259-2.9l1.107-2.542.847-1.9A2.239,2.239,0,0,0,8.563,10.84a3.021,3.021,0,0,1,1.643-2.385s.207-.83-.64-.709l-6.5,1.59S.7,8.784,0,7.4c0,0-.19-1.694,1.988-2.04,0,0-2.4,1.262-1.331,2.386,0,0,1.643,1.711,2.628,1.21L9.808,7.349s.052-.8-.743-.5L6.73,7.106l2.957-.675s-.813-.864-1.625-.691c0,0-4.478-1.885-3.631-5.032,0,0,.138,3.562,3.423,4.46,0,0,.778.432.813-.64,0,0-1.418-1.884-1.279-2.559,0,0,1.349,2.767,2.006,3.061,0,0,1.02.8.83-.346,0,0,.657.882,1.089-.173A.768.768,0,0,1,12.574,4.928Z" transform="translate(0.715 3.306)" fill="#42787f"/>
      <g id="Group_209" data-name="Group 209" transform="translate(10.629 8.71)">
        <path id="Path_286" data-name="Path 286" d="M.274,1.945S-.556.891.672.77A1.1,1.1,0,0,1,1.986.043S3.3.372,3.023,1.236c0,0,.847.19.035,1a.85.85,0,0,1-1.193.795C1.882,3.034-.123,3.121.274,1.945Z" fill="#f14c09"/>
        <path id="Path_287" data-name="Path 287" d="M0,.968A.628.628,0,0,0,.4,0S.64.484,0,.968Z" transform="translate(2.505 1.582)" fill="#ce5125"/>
        <path id="Path_288" data-name="Path 288" d="M1.5.328A.976.976,0,0,1,0,0S.83.795,1.5.328Z" transform="translate(0.672 2.325)" fill="#ce5125"/>
        <path id="Path_289" data-name="Path 289" d="M.1,1.188S-.043-.2.856.081C.839.1-.337-.473.1,1.188Z" transform="translate(0.49 0.792)" fill="#ce5125"/>
        <path id="Path_290" data-name="Path 290" d="M.207.951S1.037.225,0,0C0,0,.761.139.207.951Z" transform="translate(2.522 0.891)" fill="#ce5125"/>
        <path id="Path_291" data-name="Path 291" d="M1.314.849S.761-.621,0,.521C0,.521.8-.846,1.314.849Z" transform="translate(1.035 0.284)" fill="#ce5125"/>
        <path id="Path_292" data-name="Path 292" d="M.415,1.141S1.418.173,0,0C0,0,.951.1.415,1.141Z" transform="translate(1.917 1.288)" fill="#ce5125"/>
        <path id="Path_293" data-name="Path 293" d="M.031,1.007S-.262.108.948.316C.948.316-.072-.739.031,1.007Z" transform="translate(1.176 0.661)" fill="#ce5125"/>
        <path id="Path_294" data-name="Path 294" d="M1.277,1.068S-.3,1.414.05.548C.084.479.119.394.171.307c.726-1.176-.588,1.435.968.985C2.678.843,1.277,1.068,1.277,1.068Z" transform="translate(1.054 1.361)" fill="#ce5125"/>
        <path id="Path_295" data-name="Path 295" d="M.639.64S-.122.917.017,0Z" transform="translate(1.502 1.201)" fill="#ce5125"/>
      </g>
    </g>
    <g id="Group_213" data-name="Group 213" transform="translate(24.232 47.761)">
      <path id="Path_296" data-name="Path 296" d="M18.347,17.738s6.9,2.127,6.38-3.717c0,0-.467-2.9-2.645-2.732,0,0,4.409-4.149-.035-5.861,0,0-2.161-1.47-3.977-.605,0,0,.674-6.138-3.631-4.564,0,0-3.717-.259-4.616,2.68a3.674,3.674,0,0,0-.138.657C9.166,7.243,7.506,3.25,7.506,3.25a4.706,4.706,0,0,0-6.466.276s-2.351,4.824.017,7.366l2.887,1.072,2.7.483S.4,11.964,1.749,16.891c0,0,1.331,5.273,5.014,4.218,0,0,7.158,4.755,7.677-.242C14.422,20.85,20.681,25.311,18.347,17.738Z" transform="translate(0.323 0)" fill="#bef4f0"/>
      <g id="Group_211" data-name="Group 211" transform="translate(0 0.074)">
        <path id="Path_297" data-name="Path 297" d="M.343,6.847,5.72,10.685A2.205,2.205,0,0,0,4.475,8.213s.5-1.176,2.161-.207l2.455.985L6.342,5.55S10.6,9.008,8.4,5.43L11.339,9.1s-1.764-5.222-.968-6.553c0,0,.968,6,1.85,5.273l.588-4.028s-.19,5.066,1.677,1.141c0,0,3.129-3.406,2.542-4.928,0,0,1.245.433-2.974,7.193,0,0,1.781,2.887,4.322-2.853,0,0-1.936,5.533,1.539,1.642L16.785,9.043S19,12.276,22.456,7.729c0,0,2.213-2.9,2.075-.034a6.886,6.886,0,0,1-8.265,3.112s-1.037,1.539,3.095,2.126c0,0,3.475,1.4,4.893.363,0,0,1.815-.433.225,2.352,0,0-.916,2.04-5.325.916,0,0,4.115-.19,4.616-1.729,0,0-3.994.121-5.775-1.314L16.18,13.21s-1.314,1.332.519,2.68l.9,2.939s-2.334-3.458-.83,1.694l-1.5-5.135s-1.4.64.5,4.461l-1.9-3.8s-.8,1.47-.311,4.686l-.242-4.392s-2.317-.882-1.5,1.245L12.031,20l-1.089-3.458L8.383,20.04s-1.8.432,1.815-3.995c0,0-1.833-.864-3.3,2.49,0,0-2.8,1.418-.847-1.746L9.42,14.507s-1.245-2.8-2.645.414l-2.282.952L7.743,12.9a3.017,3.017,0,0,0-4.132,1s-.674-2.213,3.32-1.954C6.948,11.947-1.818,11.17.343,6.847Z" transform="translate(0 0.409)" fill="#a6dfd3"/>
        <path id="Path_298" data-name="Path 298" d="M2.769,1.625.746.018S-.5-.242.227,1.228l2.2,2.749C2.406,3.994.158,1.194,2.769,1.625Z" transform="translate(0.963 3.884)" fill="#a6dfd3"/>
        <path id="Path_299" data-name="Path 299" d="M1.28,2.691,1.5.167S-.328-.629.052,1.255C.069,1.273.778-.611,1.28,2.691Z" transform="translate(13.241 0)" fill="#a6dfd3"/>
      </g>
      <path id="Path_300" data-name="Path 300" d="M9.734,8.853s-.346-1.919.743-1.833c0,0-1.228-.45.035-1.106,0,0-1.02-1.106,1-1.816,0,0-1.331.225-.882-.6,0,0-1.314-.691.605-2.611L9.475,2.041S8.23,4.426,8.247,2.663c0,0-1.3.709-.847-1.764,0,0-1.573,2.144-1.279-.9,0,0,.035,3.475-.657,1.435,0,0,.242,3.786-.709.553,0,0,.346,2.7-1.366.813,0,0,1.954,1.279-2.386.985,0,0,1.487,1.072-1,.708,0,0,3.665.951.813,1.816,0,0,5.135-.986,3.32,1.435,0,0,3.251.139,1.694,1.556,0,0,2.438-.363,1.781.83C7.608,10.149,7.729,6.726,9.734,8.853Z" transform="translate(5.703 6.655)" fill="#558994"/>
      <path id="Path_301" data-name="Path 301" d="M9.717,12.535a9.244,9.244,0,0,0-1-2.576.974.974,0,0,1,1.072-.622s.1-.744-.83-.139c0,0-1.193-.708,1.591-1.607,0,0,.571-1.02-2.161.8,0,0,3.908-5.049,4.253-6.553,0,0-3.147,5.343-4.2,5.93,0,0-1.729.761-1.055-1.867V4.564a10.232,10.232,0,0,0-.329,2.87s-.882,1.106-1.124.1c0,0-1.919-5.654-1.262-7.539,0,0-.986,2.524,1.262,8.005,0,0-2.161-.917-1.746.587L0,8.144s.121.691,1.141.467l3.614.414-2.49.467,2.4-.052s1.055.743-.259,1.625c0,0,.259.934.968-.311,0,0,1.521.018,1.02,1.3L6.38,13.33s.035.242.45-1.417c0,0,.553-1.3.882.277,0,0,.242.83.432-.087,0,0-.605-1.711.363-1.141,0,0,.328-.64.519.035C9.008,11.048,9.181,12.777,9.717,12.535Z" transform="translate(5.72 2.973)" fill="#42787f"/>
      <g id="Group_212" data-name="Group 212" transform="translate(10.88 10.706)">
        <path id="Path_302" data-name="Path 302" d="M.528,2.468s.882,1.66,1.556.086c0,0,1.539.726,1.366-.691,0,0-.259-2.455-1.331-1.729,0,0-1.5-.277-1.521.553C.6.7-.7,1.863.528,2.468Z" fill="#f14c09"/>
        <path id="Path_303" data-name="Path 303" d="M0,.847s1.141.5.588-.847C.571,0,.778,1.054,0,.847Z" transform="translate(2.378 1.379)" fill="#ce5125"/>
        <path id="Path_304" data-name="Path 304" d="M.64,1.527S1.3-.115,0,.006C0,.006,1.141.248.64,1.527Z" transform="translate(2.119 0.145)" fill="#ce5125"/>
        <path id="Path_305" data-name="Path 305" d="M0,.156S.225.9.882,0C.882.017.415.709,0,.156Z" transform="translate(1.203 2.555)" fill="#ce5125"/>
        <path id="Path_306" data-name="Path 306" d="M0,.709S1.089,1.263.934,0A.737.737,0,0,1,0,.709Z" transform="translate(1.825 1.672)" fill="#ce5125"/>
        <path id="Path_307" data-name="Path 307" d="M.735,1.21S-.285,1.279.078,0C.078.017.061,1.141.735,1.21Z" transform="translate(0.467 1.5)" fill="#ce5125"/>
        <path id="Path_308" data-name="Path 308" d="M.587,1.453S-.554,1.314.345,0C.345,0-.381,1.228.587,1.453Z" transform="translate(0.252 0.704)" fill="#ce5125"/>
        <path id="Path_309" data-name="Path 309" d="M0,1.176S.1-.708,1.677.294C1.677.294.709-.657,0,1.176Z" transform="translate(0.546 0.341)" fill="#ce5125"/>
        <path id="Path_310" data-name="Path 310" d="M1.521,1.014S.968-.785,0,.409C.017.409,1.262-.265,1.521,1.014Z" transform="translate(1.427 0.365)" fill="#ce5125"/>
        <path id="Path_311" data-name="Path 311" d="M0,.83s.986.45,1.089-.83C1.089.017.8,1.106,0,.83Z" transform="translate(1.462 1.31)" fill="#ce5125"/>
        <path id="Path_312" data-name="Path 312" d="M.452,1.521S-.793.172.85,0C.85,0-.084.035.452,1.521Z" transform="translate(1.062 1.103)" fill="#ce5125"/>
      </g>
    </g>
    <g id="Group_215" data-name="Group 215" transform="translate(0 57.067)">
      <path id="Path_313" data-name="Path 313" d="M1.7,20.674s-3.994-4.5.8-6.38c0,0-5.74-4.547.19-7.5,0,0,2.023-.881,3.216-.329,0,0-1.262-6.6,5.879-4.512,0,0,4.443-4.651,7.919.415,0,0,.968,4.253-2.611,5.688l-2.161,4.617-2.576,4.149L9.2,18.91A6.868,6.868,0,0,1,1.7,20.674Z" transform="translate(0 0)" fill="#bef4f0"/>
      <path id="Path_314" data-name="Path 314" d="M10.28,17.111s-1.746,9.838,5.066,5.913c0,0,2.732-1.158,2.715-2.576s.64.45.64.45.9-2.144-1.677-5.585c0,0-3.078-2.351.864-1.262,0,0,6.466,2.991,5.446-3.873,0,0,2.317-3.44-1.037-4.685,0,0-2.611-1.366-4.2.449,0,0,3.942-3.3.726-5.516,0,0-1.885-.916-1.556.416,0,0,2.472,2.023-1.055,5.256,0,0-1.781-.57.156-3.958,0,0,.017-1.764-1.262.1L16.383.375s-.657-1.262-1.833.847c0,0,.519,3.182-.864,5.2,0,0-2.887-2.576-.743-5.5,0,0-.847-.4-1.366,1.989,0,0-.761,1.833,1.037,4.6,0,0-.743,2.109-4.15-3.251L7.427,3.037s-1.279-.243.847,2.3c0,0,1.9,3.112,1.072,4.08L4.868,6.357s-1.4.57,3.769,3.959L.01,8.085S-.526,9.5,6.372,10.472l1.608.778-6.4,1.089s3.959.554.968,1.9L8.1,12.374l-5.861,4.1S3.969,17.336,7.963,14c0,0,1.85,1.02-1.712,2.8,0,0,1.279,1.228,2.023.138,0,0-4.841,4.409-6.951.847,0,0-1.885-.484-.536.934C.822,18.753,3.208,22.488,10.28,17.111Z" transform="translate(0.878 1.92)" fill="#a6dfd3"/>
      <path id="Path_315" data-name="Path 315" d="M7.988,7.724s-2.957,3.82-1.158,6.259c0,0,.9.363.259-1.452,0,0,.38-2.664,1.107-1.142.432.9.553-.8,1.435.985l.64.882s.761,1.262-.38-1.608c0,0-.605-2.542,1.158-.623,0,0,.726.518.19-.674,0,0-.674-2.438,1.072-.294l.605,1S12.1,8.07,10.27,7.447c0,0-.294-.76,1.331-.76,0,0,2.092,1.676,2.818,1.089a3.806,3.806,0,0,0-2.611-1.521S10.426,4.612,13.9,5.217l1.435.155s1.141-.726-.571-.812l-2.542.035s-1.193-1.038,2.421-1.314l1.591-.122L18.241,3s-.432-.986-1.833-.363L11.9,3.454l4.5-1.868L11.6,3.263l-.346-2.092s-1.573,3.3-1.608,1.124L9.233.2S8.109-.7,8.161,1.292l.052,1.816S5.758,2.676,5.965,1.655c0,0,.519,1.729-1.055,1.539,0,0,1.625,1.28-.484,1.8,0,0-4.011.018-4.426.969,0,0,1.072.795,2.939-.156,0,0,3.078,0,2.075,1.107l-1.47.847s.45,1.279,2.092-.433c0,0,1.21.674-1.02,2.3C4.634,9.643,4.374,11.251,7.988,7.724Z" transform="translate(5.314 8.161)" fill="#558994"/>
      <path id="Path_316" data-name="Path 316" d="M9.544,7.2a1.894,1.894,0,0,0,1.193,1.452s1.8,1.729,1.919,3.113c0,0-.277-.052-.605-1,0,0-1.954-2.939-2.144-2.075L10.98,11.07s-1.21-3.2-1.8-2.041l.657,2.3S8.49,9.2,9.095,8.166c0,0-.467-.329-.605,1.037l-.052,2.023s-.761-2.472.311-3.458c0,0-1.418-.916-2.421.934L5.464,9.947A3.386,3.386,0,0,1,7,7.647s.035-1.919-1.66-.864c0,0-.951-.26.5-.744,0,0-5.533-.052-5.844.8,0,0-.138-.9,4.15-1.158l3.181.017s-.657-.294-.052-.9L5.257,2.512S5.239,2.356,7.072,3.9l1.107.934S9.389,4.69,9.3,3.756c-.242-2.611.467.64.4.986,0,0,.743.674.9-.519A5.919,5.919,0,0,1,14.783.385S17.6-.722,18.656.817c0,0-.035.674-.536.553,0,0,.692.64.156.64,0,0-1.764-1.695-3.285-1.055A4.928,4.928,0,0,0,10.98,5.123s-.156,1.349.986.19c0,0-.622,1.244-1.245.483C10.737,5.78,11.187,7.146,9.544,7.2Z" transform="translate(5.573 7.477)" fill="#42787f"/>
      <g id="Group_214" data-name="Group 214" transform="translate(12.884 11.898)">
        <path id="Path_317" data-name="Path 317" d="M1.974,2.535s.536.761,1.055-.812c0,0,1.245-.761-.207-1.124,0,0-1.158-1.038-1.608-.38,0,0-1.279-.623-1.21.467,0,0,.035,2.126,1,1.209C1.006,1.913.919,3.365,1.974,2.535Z" fill="#f14c09"/>
        <path id="Path_318" data-name="Path 318" d="M0,1S.882.761.259,0C.259,0,1.435.57,0,1Z" transform="translate(2.441 0.875)" fill="#ce5125"/>
        <path id="Path_319" data-name="Path 319" d="M1.286,1.156S.111,1.379.007.671A.925.925,0,0,1,.041.308C.318-.867-.443,1.743,1.286,1.156Z" transform="translate(1.258 1.189)" fill="#ce5125"/>
        <path id="Path_320" data-name="Path 320" d="M1.8.512S.037-.4.055.685C.055.685-.481-.733,1.8.512Z" transform="translate(0.242 0.242)" fill="#ce5125"/>
        <path id="Path_321" data-name="Path 321" d="M.459,1S-.526.727.39,0C.373,0-.042.882.459,1Z" transform="translate(0.322 0.719)" fill="#ce5125"/>
        <path id="Path_322" data-name="Path 322" d="M1.694,1.1S1.608-.772,0,.369C0,.352,1.279-.772,1.694,1.1Z" transform="translate(1.023 0.385)" fill="#ce5125"/>
        <path id="Path_323" data-name="Path 323" d="M1.445,1.142S-.232,1.263.027,0C.027,0,.753,1.7,1.445,1.142Z" transform="translate(0.996 0.735)" fill="#ce5125"/>
        <path id="Path_324" data-name="Path 324" d="M0,0" transform="translate(2.129 1.497)" fill="#ce5125"/>
      </g>
    </g>
  </g>
</svg>
